<svg id="1f31a" data-name="Layer 3" xmlns="http://www.w3.org/2000/svg" viewBox="0 0 32 32.02">
  <defs>
    <style>
      .cls-1 {
        fill: #ffcc4d;
      }

      .cls-2 {
        fill: #856226;
      }

      .cls-3 {
        fill: #e75b70;
      }

      .cls-4 {
        fill: #66481c;
      }

      .cls-5 {
        fill: #fdfefd;
      }
    </style>
  </defs>
  <title>moon_money_emoji</title>
  <circle class="cls-1" cx="16" cy="16" r="16"/>
  <g>
    <circle class="cls-2" cx="8.44" cy="6.68" r="3.11"/>
    <circle class="cls-2" cx="21.78" cy="25.35" r="3.11"/>
    <circle class="cls-2" cx="19.56" cy="4.46" r="1.78"/>
    <circle class="cls-2" cx="2.67" cy="16.02" r="0.89"/>
    <circle class="cls-2" cx="26.67" cy="8.02" r="0.89"/>
    <circle class="cls-2" cx="14.22" cy="27.57" r="0.89"/>
    <circle class="cls-2" cx="28.44" cy="16.91" r="1.78"/>
    <circle class="cls-2" cx="5.33" cy="23.13" r="1.78"/>
  </g>
  <g>
    <path class="cls-3" d="M17.21,31.94a4.84,4.84,0,0,0,4-4,16,16,0,0,0,.16-2.45v-5c-.6.09-1.18.19-1.78.26a21.4,21.4,0,0,1-4.38.18l-3.56-.33a3,3,0,0,1-.61-.12c-.2,0-.34,0-.34.29v6A5.08,5.08,0,0,0,14.84,32,10,10,0,0,0,16,32,9.69,9.69,0,0,0,17.21,31.94Zm-2-2v.22A.83.83,0,0,0,16,31h.06a.82.82,0,0,0,.8-.83s0,0,0-.06c0-.29.11-.38.36-.47a2,2,0,0,0,1.42-1.78,1.78,1.78,0,0,0-1.18-1.84c-.46-.23-1-.41-1.43-.62a3.68,3.68,0,0,1-.68-.37.41.41,0,0,1,0-.7,1.44,1.44,0,0,1,.52-.18,1.78,1.78,0,0,1,1.35.44.72.72,0,1,0,.89-1.11,3.64,3.64,0,0,0-.94-.52c-.24-.1-.36-.18-.36-.46a.8.8,0,0,0-1.61,0h0a.43.43,0,0,1-.33.46,1.9,1.9,0,0,0-1.28,1.72,1.69,1.69,0,0,0,1.09,1.64c.44.22.89.4,1.33.61a5,5,0,0,1,.79.44.5.5,0,0,1-.06.89,1.3,1.3,0,0,1-.44.16,1.92,1.92,0,0,1-1.42-.32,4.78,4.78,0,0,0-.61-.37.66.66,0,0,0-1,.6,1,1,0,0,0,.52.89c.47.26.92.44,1.4.67Z"/>
    <path class="cls-4" d="M21.33,25.52v-5c-.6.09-1.18.19-1.78.26a21.4,21.4,0,0,1-4.38.18l-3.56-.33a3,3,0,0,1-.61-.12c-.2,0-.34,0-.34.29v4.67a9,9,0,0,1-4.25-5.19A12.44,12.44,0,0,1,6.22,19a45.08,45.08,0,0,0,19.6,0A10.5,10.5,0,0,1,25.69,20a8.27,8.27,0,0,1-3,4.6C22.22,25,21.76,25.23,21.33,25.52Z"/>
    <path class="cls-4" d="M10.52,7a.82.82,0,0,1,.84.89c0,.27.11.33.33.42a4.15,4.15,0,0,1,1,.57A.76.76,0,0,1,12.87,10h0a.78.78,0,0,1-1.09.06,1.78,1.78,0,0,0-1.38-.47,1.55,1.55,0,0,0-.48.13.44.44,0,0,0-.06.82,11.16,11.16,0,0,0,1.16.55c.36.17.75.31,1.1.51a1.78,1.78,0,0,1,1.08,1.63,2.07,2.07,0,0,1-1.11,1.87.83.83,0,0,1-.25.12c-.37.06-.48.26-.48.64a.81.81,0,0,1-.82.8h0a.82.82,0,0,1-.82-.81s0,0,0-.07c0-.34-.12-.42-.41-.52a5.33,5.33,0,0,1-1.1-.57,1.13,1.13,0,0,1-.36-.49A.68.68,0,0,1,8,13.35a.64.64,0,0,1,.81-.08c.21.12.42.27.63.4a1.91,1.91,0,0,0,1.58.24.68.68,0,0,0,.58-.55.67.67,0,0,0-.42-.6c-.42-.21-.89-.39-1.27-.6a10.57,10.57,0,0,1-1-.53,1.78,1.78,0,0,1-.12-2.89,2.57,2.57,0,0,1,.67-.39.36.36,0,0,0,.27-.41.83.83,0,0,1,.74-.9Z"/>
    <path class="cls-4" d="M21.07,16.6a.81.81,0,0,1-.83-.89c0-.29-.08-.42-.37-.48a2.2,2.2,0,0,1-1.26-.7,1.22,1.22,0,0,1-.28-.69.67.67,0,0,1,1-.58,5.62,5.62,0,0,1,.6.38A2,2,0,0,0,21.4,14a1.33,1.33,0,0,0,.48-.2.48.48,0,0,0,0-.84A5.79,5.79,0,0,0,21,12.4c-.43-.21-.89-.38-1.3-.6a1.78,1.78,0,0,1-1.12-1.65,1.93,1.93,0,0,1,1.27-1.78c.26-.11.39-.22.38-.53a.82.82,0,0,1,1.64,0c0,.28.11.37.36.47a3.93,3.93,0,0,1,1,.6.73.73,0,0,1,.13,1v0a.76.76,0,0,1-1,.08A1.9,1.9,0,0,0,21,9.52a1.78,1.78,0,0,0-.6.17.44.44,0,0,0-.05.76,4.13,4.13,0,0,0,.71.38c.47.21,1,.39,1.43.62a1.78,1.78,0,0,1,1.22,1.78,2.07,2.07,0,0,1-1.48,2,.45.45,0,0,0-.37.52h0a.81.81,0,0,1-.74.87Z"/>
    <path class="cls-5" d="M15.24,29.93c-.49-.23-.89-.41-1.33-.65a1,1,0,0,1-.52-.89.66.66,0,0,1,1-.6,4.78,4.78,0,0,1,.61.37,1.92,1.92,0,0,0,1.42.32,1.3,1.3,0,0,0,.44-.16.5.5,0,0,0,.06-.89,5,5,0,0,0-.79-.44c-.44-.21-.89-.39-1.33-.61a1.69,1.69,0,0,1-1.09-1.64A1.9,1.9,0,0,1,14.92,23a.43.43,0,0,0,.33-.46.8.8,0,0,1,1.61,0c0,.28.12.37.36.46a3.64,3.64,0,0,1,.94.52.72.72,0,1,1-.89,1.11,1.78,1.78,0,0,0-1.35-.44,1.44,1.44,0,0,0-.52.18.41.41,0,0,0,0,.7,3.68,3.68,0,0,0,.68.37c.47.21,1,.39,1.43.62a1.78,1.78,0,0,1,1.15,1.8,2,2,0,0,1-1.42,1.78c-.24.09-.36.18-.36.47a.82.82,0,0,1-.74.89h-.06a.83.83,0,0,1-.82-.83s0,0,0-.06A.51.51,0,0,1,15.24,29.93Z"/>
  </g>
</svg>
