<svg id="Layer_2" data-name="Layer 2" xmlns="http://www.w3.org/2000/svg" xmlns:xlink="http://www.w3.org/1999/xlink" viewBox="0 0 32 32">
    <style>.cls-1 {fill: none;}.cls-2 {fill: #ffcc4d;}.cls-3 {clip-path: url(#clip-path);}.cls-4 {fill: #66471b;}.cls-5 {fill: #fff;}</style>
  <circle class="cls-2" cx="16" cy="16" r="16"/>
  <path id="path22" class="cls-2" d="M30.32,16A14.32,14.32,0,1,1,16,1.68,14.32,14.32,0,0,1,30.32,16"/>      
  <path id="path26" class="cls-4" d="M12.63,11.37c0,2.09-.94,4.63-2.11,4.63s-2.11-2.54-2.11-4.63.94-4.63,2.11-4.63,2.11,2.54,2.11,4.63"/>
  <path id="path30" class="cls-4" d="M23.58,11.37c0,2.09-.94,4.63-2.11,4.63s-2.11-2.54-2.11-4.63.94-4.63,2.11-4.63,2.11,2.54,2.11,4.63"/>
  <path id="path34" class="cls-4" d="M16,19.37a35.64,35.64,0,0,1-7.58-.84c-.57-.11-1.68,0-1.68,1.68,0,3.37,3.87,7.58,9.26,7.58s9.26-4.21,9.26-7.58c0-1.68-1.11-1.8-1.68-1.68a35.64,35.64,0,0,1-7.58.84"/>  
  <path id="path38" class="cls-5" d="M8.42,20.21a26.44,26.44,0,0,0,7.58.84,26.44,26.44,0,0,0,7.58-.84S21.89,23.58,16,23.58s-7.58-3.37-7.58-3.37"/>
</svg>
