<svg id="1f608" data-name="Layer 2" xmlns="http://www.w3.org/2000/svg" viewBox="0 0 33.81 34.05"><defs><style>.cls-1{fill:#ffcc4d;}.cls-2{fill:#66471b;}</style></defs><title>devil_emoji</title><path class="cls-1" d="M24.29,3.9S27,4.1,30.91.34c.23-.22,2.8-1.07,2.89,1.17a10.55,10.55,0,0,1-3.21,8.38A8.26,8.26,0,0,1,25.46,8.8C23.35,7.32,24.29,3.9,24.29,3.9Z"/><path class="cls-1" d="M9.51,3.9S6.85,4.1,2.9.34C2.67.12.1-.73,0,1.52A10.55,10.55,0,0,0,3.22,9.89,8.26,8.26,0,0,0,8.35,8.8C10.46,7.32,9.51,3.9,9.51,3.9Z"/><circle class="cls-1" cx="16.82" cy="18.05" r="16"/><path class="cls-2" d="M25.66,24.16a.47.47,0,0,0-.6,0,15.36,15.36,0,0,1-8.22,2.74,15.41,15.41,0,0,1-8.22-2.74.47.47,0,0,0-.69.62,10.84,10.84,0,0,0,8.9,5,10.84,10.84,0,0,0,8.9-5A.47.47,0,0,0,25.66,24.16Z"/><path class="cls-2" d="M14.68,17.23c-3.07-3.07-8-3.11-8.22-3.11a.94.94,0,0,0,0,1.89,13.18,13.18,0,0,1,3.76.7,3.86,3.86,0,0,0-.93,2.61c0,1.83,1.06,3.31,2.36,3.31S14,21.14,14,19.31a4.51,4.51,0,0,0,0-.48h0a.94.94,0,0,0,.67-1.61Z"/><path class="cls-2" d="M27.23,14.12c-.21,0-5.15,0-8.22,3.11a.94.94,0,0,0,.67,1.61h0a4.77,4.77,0,0,0,0,.48c0,1.83,1.06,3.31,2.36,3.31s2.36-1.48,2.36-3.31a3.86,3.86,0,0,0-.93-2.61,13.18,13.18,0,0,1,3.76-.7.94.94,0,0,0,0-1.89Z"/></svg>