<svg id="1f607" data-name="Layer 2" xmlns="http://www.w3.org/2000/svg" viewBox="0 0 32 33.09">
  <defs>
    <style>
      .cls-1 {
        fill: #ffcc4d;
      }

      .cls-2 {
        fill: #66471b;
      }

      .cls-3 {
        fill: #65abde;
      }
    </style>
  </defs>
  <title>angel</title>
  <circle class="cls-1" cx="16" cy="17.09" r="16"/>
  <path class="cls-2" d="M24.83,21.34a.47.47,0,0,0-.6,0A15.29,15.29,0,0,1,16,24a15.34,15.34,0,0,1-8.19-2.73.47.47,0,0,0-.69.62A10.8,10.8,0,0,0,16,26.87a10.8,10.8,0,0,0,8.87-4.94A.47.47,0,0,0,24.83,21.34Z"/>
  <path class="cls-3" d="M16,0C7.72,0,1,1.59,1,4.71S7.72,9.43,16,9.43,31.1,7.84,31.1,4.71,24.36,0,16,0Zm0,6.6C9.8,6.6,4.75,6.07,4.75,4.24S9.8,1.89,16,1.89s11.29.53,11.29,2.36S22.28,6.6,16,6.6Z"/>
  <path class="cls-1" d="M8.86,5.88c-3.2-1.25-2.35-1.88-.06-3A16,16,0,0,1,23.57,3c.65.35,1.35.83,2,1.27"/>
  <path class="cls-2" d="M23.57,17.91a.94.94,0,0,1-.89-.64c-.19-.57-1-2.18-1.93-2.18S19,16.81,18.82,17.27a.94.94,0,1,1-1.78-.6c.12-.36,1.23-3.47,3.72-3.47s3.6,3.12,3.72,3.47a.94.94,0,0,1-.89,1.24Z"/>
  <path class="cls-2" d="M14.16,17.91a.94.94,0,0,1-.89-.64c-.19-.57-1-2.18-1.93-2.18S9.56,16.81,9.4,17.27a.94.94,0,1,1-1.79-.6c.12-.36,1.23-3.47,3.72-3.47s3.6,3.12,3.72,3.47a.94.94,0,0,1-.89,1.24Z"/>
</svg>
