<svg id="Layer_1" data-name="Layer 1" xmlns="http://www.w3.org/2000/svg" viewBox="0 0 32 32">
  <defs>
    <style>
      .cls-1 {
        fill: #ffcc4d;
      }

      .cls-2 {
        fill: #66471b;
      }
    </style>
  </defs>
  <title>1f60f</title>
  <circle class="cls-1" cx="16" cy="16" r="16"/>
  <g id="g24">
    <path id="path26" class="cls-2" d="M22.31,21.11a.49.49,0,0,0-.53-.06L18,22.92c-1.79.88-6.43.89-6.48.89h0a.47.47,0,0,0-.48.47.47.47,0,0,0,.24.41h0a.49.49,0,0,0,.23.06h6.7a4.66,4.66,0,0,0,4.28-3.15.47.47,0,0,0-.14-.5"/>
  </g>
  <g id="g28">
    <path id="path30" class="cls-2" d="M28.7,13.93a1,1,0,0,1-.77-.38A8.1,8.1,0,0,0,22,10.17a.94.94,0,1,1,0-1.88,10,10,0,0,1,7.46,4.14.93.93,0,0,1-.19,1.32,1,1,0,0,1-.57.19"/>
  </g>
  <g id="g32">
    <path id="path34" class="cls-2" d="M3.83,13.93a1,1,0,0,1-.57-.19.93.93,0,0,1-.19-1.32,10,10,0,0,1,7.46-4.14.94.94,0,1,1,0,1.88,8.11,8.11,0,0,0-5.93,3.39,1,1,0,0,1-.77.38"/>
  </g>
  <g id="g36">
    <path id="path38" class="cls-2" d="M14.25,15.25a.85.85,0,0,0,.07-.14.94.94,0,0,0-.7-1.14c-.17,0-4.27-1-7.46,1.07a.93.93,0,0,0-.26,1.31,1,1,0,0,0,.8.42,1,1,0,0,0,.53-.16,6.76,6.76,0,0,1,3.32-1,1.8,1.8,0,0,0,0,.22,1.91,1.91,0,0,0,3.83,0,1.83,1.83,0,0,0-.1-.57"/>
  </g>
  <g id="g40">
    <path id="path42" class="cls-2" d="M25.73,15.25a.86.86,0,0,0,.07-.14A.94.94,0,0,0,25.1,14c-.17,0-4.27-1-7.46,1.07a.93.93,0,0,0-.27,1.31,1,1,0,0,0,1.33.26,6.76,6.76,0,0,1,3.32-1,1.77,1.77,0,0,0,0,.21,1.91,1.91,0,0,0,3.83,0,1.82,1.82,0,0,0-.1-.57"/>
  </g>
</svg>
