<svg id="Layer_3" data-name="Layer 3" xmlns="http://www.w3.org/2000/svg" viewBox="0 0 32 32"><defs><style>.cls-1{fill:#ffcc4d;}.cls-2{fill:#f27792;}.cls-3{fill:#66471b;}</style></defs><title>blush_emoji</title><circle class="cls-1" cx="16" cy="16" r="16"/><circle class="cls-2" cx="5.57" cy="15.93" r="4.71"/><circle class="cls-2" cx="26.28" cy="15.93" r="4.71"/><path class="cls-3" d="M24.71,19.35a.47.47,0,0,0-.6,0,15.31,15.31,0,0,1-8.19,2.73,15.36,15.36,0,0,1-8.19-2.73.47.47,0,0,0-.69.62,10.8,10.8,0,0,0,8.87,4.93,10.8,10.8,0,0,0,8.87-4.93A.47.47,0,0,0,24.71,19.35Z"/><path class="cls-3" d="M6.51,13.11a.94.94,0,0,1-.84-1.36,5,5,0,0,1,4.61-2.4,5,5,0,0,1,4.61,2.4.94.94,0,0,1-1.68.85,3.2,3.2,0,0,0-2.93-1.37,3.21,3.21,0,0,0-2.92,1.36A.94.94,0,0,1,6.51,13.11Z"/><path class="cls-3" d="M25.34,13.11a.94.94,0,0,1-.84-.52,3.2,3.2,0,0,0-2.92-1.36,3.19,3.19,0,0,0-2.93,1.37,1,1,0,0,1-1.27.4A.93.93,0,0,1,17,11.75a5,5,0,0,1,4.61-2.4,5,5,0,0,1,4.61,2.4.94.94,0,0,1-.84,1.36Z"/></svg>