<svg id="Layer_2" data-name="Layer 2" xmlns="http://www.w3.org/2000/svg" viewBox="0 0 32 32">
  <defs>
    <style>
      .cls-1 {
        fill: #ffcc4d;
      }

      .cls-2 {
        fill: #66471b;
      }

      .cls-3 {
        fill: #fff;
      }
    </style>
  </defs>
  <title>1f604</title>
  <circle class="cls-1" cx="16" cy="16" r="16"/>
  <g id="g24">
    <path id="path26" class="cls-2" d="M24.81,15.83c0-.11-1.26-2.78-3.75-2.78s-3.7,2.66-3.75,2.78a.42.42,0,0,0,.12.5.42.42,0,0,0,.51,0,5.62,5.62,0,0,1,3.12-.76,5.63,5.63,0,0,1,3.12.76.42.42,0,0,0,.25.08.42.42,0,0,0,.38-.59"/>
  </g>
  <g id="g28">
    <path id="path30" class="cls-2" d="M14.7,15.83c-.05-.11-1.26-2.78-3.75-2.78s-3.7,2.66-3.75,2.78a.42.42,0,0,0,.63.51,5.63,5.63,0,0,1,3.12-.76,5.63,5.63,0,0,1,3.12.76.42.42,0,0,0,.25.08.42.42,0,0,0,.38-.59"/>
  </g>
  <g id="g32">
    <path id="path34" class="cls-2" d="M16,19.37a35.64,35.64,0,0,1-7.58-.84c-.57-.11-1.68,0-1.68,1.68,0,3.37,3.87,7.58,9.26,7.58s9.26-4.21,9.26-7.58c0-1.68-1.11-1.8-1.68-1.68a35.64,35.64,0,0,1-7.58.84"/>
  </g>
  <g id="g36">
    <path id="path38" class="cls-3" d="M8.42,20.21a26.44,26.44,0,0,0,7.58.84,26.44,26.44,0,0,0,7.58-.84S21.89,23.58,16,23.58s-7.58-3.37-7.58-3.37"/>
  </g>
</svg>
