<svg id="Layer_2" data-name="Layer 2" xmlns="http://www.w3.org/2000/svg" viewBox="0 0 32 32">
  <defs>
    <style>
      .cls-1 {
        fill: #ffcc4d;
      }

      .cls-2 {
        fill: #66471b;
      }

      .cls-3 {
        fill: #f5f8fa;
      }
    </style>
  </defs>
  <title>1f601</title>
  <circle class="cls-1" cx="16" cy="16" r="16"/>
  <g id="g24">
    <path id="path26" class="cls-2" d="M23.58,23.58H8.42a3.38,3.38,0,0,1-3.37-3.37h0a3.38,3.38,0,0,1,3.37-3.37H23.58a3.38,3.38,0,0,1,3.37,3.37h0a3.38,3.38,0,0,1-3.37,3.37"/>
  </g>
  <path id="path28" class="cls-3" d="M21.05,18.53H16.84v3.37h4.21Z"/>
  <path id="path30" class="cls-3" d="M10.95,21.89h4.21V18.53H10.95Z"/>
  <g id="g32">
    <path id="path34" class="cls-3" d="M9.26,18.53H8.42a1.68,1.68,0,1,0,0,3.37h.84Z"/>
  </g>
  <g id="g36">
    <path id="path38" class="cls-3" d="M23.58,18.53h-.84v3.37h.84a1.68,1.68,0,0,0,0-3.37"/>
  </g>
  <g id="g40">
    <path id="path42" class="cls-2" d="M14.32,15.16a.84.84,0,0,1-.8-.58c-.17-.5-.86-2-1.73-2s-1.59,1.54-1.73,2A.84.84,0,0,1,8.46,14c.11-.32,1.1-3.1,3.33-3.1S15,13.73,15.11,14a.84.84,0,0,1-.8,1.11"/>
  </g>
  <g id="g44">
    <path id="path46" class="cls-2" d="M22.74,15.16a.84.84,0,0,1-.8-.58c-.17-.5-.86-2-1.73-2s-1.59,1.54-1.73,2a.84.84,0,1,1-1.6-.53c.11-.32,1.1-3.1,3.32-3.1s3.22,2.78,3.32,3.1a.84.84,0,0,1-.8,1.11"/>
  </g>
</svg>
