<svg id="1f606" data-name="Layer 2" xmlns="http://www.w3.org/2000/svg" viewBox="0 0 32 32">
    <style>
      .cls-1 {
        fill: #ffcc4d;
      }
      .cls-2 {
        fill: #66471b;
      }
      .cls-3 {
        fill: #fff;
      }
    </style>
  <circle class="cls-1" cx="16" cy="16" r="16"/>
    <path id="path26" class="cls-2" d="M16,19.37a35.64,35.64,0,0,1-7.58-.84c-.57-.11-1.68,0-1.68,1.68,0,3.37,3.87,7.58,9.26,7.58s9.26-4.21,9.26-7.58c0-1.68-1.11-1.8-1.68-1.68a35.64,35.64,0,0,1-7.58.84"/>
    <path id="path30" class="cls-3" d="M8.42,20.21a26.44,26.44,0,0,0,7.58.84,26.44,26.44,0,0,0,7.58-.84S21.89,23.58,16,23.58s-7.58-3.37-7.58-3.37"/>
    <path id="path34" class="cls-2" d="M26.61,16.17a15.17,15.17,0,0,0-3.91-2,1.31,1.31,0,0,0,0-.3,1.25,1.25,0,0,0-.3-.81,11.63,11.63,0,0,1,2.83-.45.84.84,0,0,0,0-1.68c-.19,0-4.59,0-7.33,2.77a.84.84,0,0,0,.6,1.44,13.31,13.31,0,0,1,7.08,2.36.84.84,0,0,0,1-1.35"/>
    <path id="path38" class="cls-2" d="M14.07,13.72C11.33,11,6.92,10.95,6.74,10.95a.84.84,0,0,0,0,1.68,11.68,11.68,0,0,1,2.83.45,1.22,1.22,0,0,0-.26,1.11,15.17,15.17,0,0,0-3.91,2,.84.84,0,1,0,1,1.35,13.23,13.23,0,0,1,7.07-2.36.84.84,0,0,0,.6-1.44"/>
</svg>
