<svg id="Layer_2" data-name="Layer 2" xmlns="http://www.w3.org/2000/svg" viewBox="0 0 32 32">
  <defs>
    <style>
      .cls-1 {
        fill: #ffcc4d;
      }

      .cls-2 {
        fill: #66471b;
      }
    </style>
  </defs>
  <title>1f60c</title>
  <circle class="cls-1" cx="16" cy="16" r="16"/>
  <g id="g24">
    <path id="path26" class="cls-2" d="M24.64,14a.42.42,0,0,0-.51,0,5.59,5.59,0,0,1-3.11.76A5.61,5.61,0,0,1,17.9,14a.42.42,0,0,0-.64.51c.05.11,1.26,2.78,3.75,2.78s3.7-2.66,3.75-2.78a.42.42,0,0,0-.12-.5"/>
  </g>
  <g id="g28">
    <path id="path30" class="cls-2" d="M14,14a5.6,5.6,0,0,1-3.11.76A5.61,5.61,0,0,1,7.82,14a.42.42,0,0,0-.64.51c.05.11,1.26,2.78,3.75,2.78s3.7-2.66,3.75-2.78A.42.42,0,0,0,14,14"/>
  </g>
  <g id="g32">
    <path id="path34" class="cls-2" d="M25.21,11.79a.84.84,0,0,1-.67-.34,6.26,6.26,0,0,0-5.89-2.21.84.84,0,0,1-.33-1.65,7.89,7.89,0,0,1,7.56,2.85.84.84,0,0,1-.67,1.35"/>
  </g>
  <g id="g36">
    <path id="path38" class="cls-2" d="M6.72,11.79a.84.84,0,0,1-.67-1.35A7.89,7.89,0,0,1,13.61,7.6a.84.84,0,0,1-.33,1.65A6.2,6.2,0,0,0,7.4,11.45a.84.84,0,0,1-.67.34"/>
  </g>
  <g id="g40">
    <path id="path42" class="cls-2" d="M20.38,20.7a.43.43,0,0,0-.5.05s-.85.73-3.91.73-3.9-.72-3.9-.72a.42.42,0,0,0-.71.4s1,3.69,4.61,3.69,4.6-3.65,4.61-3.69a.42.42,0,0,0-.19-.46"/>
  </g>
</svg>
