<svg id="Layer_2" data-name="Layer 2" xmlns="http://www.w3.org/2000/svg" viewBox="0 0 32 32">
  <defs>
    <style>
      .cls-1 {
        fill: #ffcc4d;
      }

      .cls-2 {
        fill: #66471b;
      }

      .cls-3 {
        fill: #fff;
      }
    </style>
  </defs>
  <title>1f600</title>
  <circle class="cls-1" cx="16" cy="16" r="16"/>
  <g id="g24">
    <path id="path26" class="cls-2" d="M16,18.53a35.64,35.64,0,0,1-7.58-.84c-.57-.11-1.68,0-1.68,1.68,0,3.37,3.87,7.58,9.26,7.58s9.26-4.21,9.26-7.58c0-1.68-1.11-1.8-1.68-1.68a35.64,35.64,0,0,1-7.58.84"/>
  </g>
  <g id="g28">
    <path id="path30" class="cls-2" d="M9.26,11.79a1.68,1.68,0,0,1,3.37,0v1.68a1.68,1.68,0,1,1-3.37,0Z"/>
  </g>
  <g id="g32">
    <path id="path34" class="cls-2" d="M19.37,11.79a1.68,1.68,0,0,1,3.37,0v1.68a1.68,1.68,0,1,1-3.37,0Z"/>
  </g>
  <g id="g36">
    <path id="path38" class="cls-3" d="M8.42,19.37a26.44,26.44,0,0,0,7.58.84,26.44,26.44,0,0,0,7.58-.84S21.89,22.74,16,22.74s-7.58-3.37-7.58-3.37"/>
  </g>
</svg>
