<svg id="1f605" data-name="Layer 2" xmlns="http://www.w3.org/2000/svg" viewBox="0 0 32 32">
    <style>
      .cls-1 {
        fill: #ffcc4d;
      }
      .cls-2 {
        fill: #66471b;
      }
      .cls-3 {
        fill: #fff;
      }
      .cls-4 {
        fill: #65abde;
      }
    </style>
    <circle class="cls-1" cx="16" cy="16" r="16"/>
    <path id="path26" class="cls-2" d="M25.84,15.81c-.06-.13-1.41-3.1-4.19-3.1s-4.14,3-4.19,3.1a.47.47,0,0,0,.14.56.47.47,0,0,0,.58,0,6.28,6.28,0,0,1,3.48-.85,6.3,6.3,0,0,1,3.48.85.47.47,0,0,0,.28.09.47.47,0,0,0,.43-.66"/>
    <path id="path30" class="cls-2" d="M14.55,15.81c-.06-.13-1.41-3.1-4.19-3.1s-4.14,3-4.19,3.1a.47.47,0,0,0,.71.57,6.29,6.29,0,0,1,3.49-.85,6.3,6.3,0,0,1,3.48.85.47.47,0,0,0,.28.09.47.47,0,0,0,.43-.66"/>
    <path id="path34" class="cls-2" d="M16,19.76a39.83,39.83,0,0,1-8.47-.94c-.64-.12-1.88,0-1.88,1.88,0,3.76,4.32,8.47,10.35,8.47s10.35-4.71,10.35-8.47c0-1.88-1.24-2-1.88-1.88a39.83,39.83,0,0,1-8.47.94"/>
    <path id="path38" class="cls-3" d="M7.53,20.71a29.55,29.55,0,0,0,8.47.94,29.55,29.55,0,0,0,8.47-.94S22.59,24.47,16,24.47s-8.47-3.76-8.47-3.76"/>
    <path id="path42" class="cls-4" d="M32,9.41a4.71,4.71,0,0,1-9.41,0c0-2.6,3.76-9.41,4.71-9.41S32,6.81,32,9.41"/>
</svg>
