<svg id="1f609" data-name="Layer 2" xmlns="http://www.w3.org/2000/svg" viewBox="0 0 32 32">
    <style>.cls-1 {fill: #ffcc4d;}.cls-2 {fill: #66471b;}
    </style>
    <circle class="cls-1" cx="16" cy="16" r="16"/>
    <path id="path26" class="cls-2" d="M12.63,14.74c0,1.63-.94,2.95-2.11,2.95s-2.11-1.32-2.11-2.95.94-2.95,2.11-2.95,2.11,1.32,2.11,2.95"/>
    <path id="path30" class="cls-2" d="M24.81,15.83c0-.11-1.26-2.78-3.75-2.78s-3.7,2.66-3.75,2.78a.42.42,0,0,0,.12.5.42.42,0,0,0,.51,0,5.62,5.62,0,0,1,3.12-.76,5.63,5.63,0,0,1,3.12.76.42.42,0,0,0,.25.08.42.42,0,0,0,.38-.59"/>
    <path id="path34" class="cls-2" d="M5.89,11.33A.84.84,0,0,1,5.22,10a8.77,8.77,0,0,1,6.57-3.71.84.84,0,0,1,0,1.68,7.1,7.1,0,0,0-5.22,3,.84.84,0,0,1-.67.34"/>
    <path id="path38" class="cls-2" d="M25.26,13.12a.84.84,0,0,1-.67-.34,6.28,6.28,0,0,0-5.9-2.21.84.84,0,1,1-.33-1.65,7.91,7.91,0,0,1,7.58,2.85.84.84,0,0,1-.67,1.35"/>
    <path id="path42" class="cls-2" d="M20.42,20.7a.43.43,0,0,0-.5.05s-.85.73-3.92.73-3.91-.72-3.91-.72a.42.42,0,0,0-.71.4s1,3.69,4.62,3.69,4.61-3.65,4.62-3.69a.42.42,0,0,0-.19-.46"/>
</svg>
