<svg id="Layer_2" data-name="Layer 2" xmlns="http://www.w3.org/2000/svg" viewBox="0 0 32 32">
  <defs>
    <style>
      .cls-1 {
        fill: #ffcc4d;
      }

      .cls-2 {
        fill: #2a2f33;
      }

      .cls-3 {
        fill: #66471b;
      }
    </style>
  </defs>
  <title>1f60e</title>
  <circle class="cls-1" cx="16" cy="16" r="16"/>
  <g id="g24">
    <path id="path26" class="cls-2" d="M.23,9.55c.23.23,1.35.91,1.58,1.6s.68,4.56,2,5.7,6.66.74,7.67.23c2.26-1.14,2.53-4.32,2.93-5.93.22-.91,1.58-.91,1.58-.91s1.35,0,1.58.91c.4,1.61.68,4.79,2.93,5.93,1,.51,6.27.95,7.67-.23s1.8-5,2-5.7,1.35-1.37,1.58-1.6a1.46,1.46,0,0,0,0-1.37C31.35,7.73,26,7.32,20.3,8A19.76,19.76,0,0,1,16,8.41,19.84,19.84,0,0,1,11.73,8C6,7.32.68,7.73.23,8.18a1.47,1.47,0,0,0,0,1.37"/>
  </g>
  <g id="g28">
    <path id="path30" class="cls-3" d="M24.79,21.58a.47.47,0,0,0-.6,0A15.19,15.19,0,0,1,16,24.32a15.24,15.24,0,0,1-8.19-2.77.47.47,0,0,0-.6,0,.48.48,0,0,0-.09.6,10.79,10.79,0,0,0,8.87,5,10.79,10.79,0,0,0,8.87-5,.48.48,0,0,0-.09-.6"/>
  </g>
</svg>
