<svg id="heart_eyes" xmlns="http://www.w3.org/2000/svg" viewBox="0 0 33.02 32.74">
  <defs>
    <style>
      .cls-1 {
        fill: #ffcc4d;
      }

      .cls-2 {
        fill: #66471b;
      }

      .cls-3 {
        fill: #e75b70;
      }
    </style>
  </defs>
  <title>heart_eyes</title>
  <circle class="cls-1" cx="16.51" cy="16.74" r="16"/>
  <path class="cls-2" d="M16.51,20.38a32.51,32.51,0,0,1-6.92-.77c-.52-.1-1.54,0-1.54,1.54,0,3.08,3.54,6.93,8.46,6.93S25,24.23,25,21.15c0-1.54-1-1.64-1.54-1.54a32.51,32.51,0,0,1-6.92.77"/>
  <path class="cls-3" d="M15.24,2.93a4.38,4.38,0,0,0-8.35.24,4.38,4.38,0,0,0-6.2,6C2.53,12.49,7.82,14.86,11,14.88c2.48-2,5.12-7.2,4.43-11A4.46,4.46,0,0,0,15.24,2.93Z"/>
  <path class="cls-3" d="M17.78,2.93a4.38,4.38,0,0,1,8.35.24,4.38,4.38,0,0,1,6.65,5.05,4.46,4.46,0,0,1-.44.9C30.49,12.49,25.2,14.86,22,14.88c-2.48-2-5.12-7.2-4.43-11A4.49,4.49,0,0,1,17.78,2.93Z"/>
</svg>
