<svg id="Layer_2" data-name="Layer 2" xmlns="http://www.w3.org/2000/svg" viewBox="0 0 32.3 32"><defs><style>.cls-1{fill:#ffcc4d;}.cls-2{fill:#66471b;}.cls-3{fill:#fff;}.cls-4{fill:#65abde;}</style></defs><title>joy_emoji</title><circle class="cls-1" cx="16.3" cy="16" r="16"/><path class="cls-2" d="M25.84,16c-.06-.13-1.41-3.1-4.19-3.1s-4.14,3-4.19,3.1a.47.47,0,0,0,.71.57,6.28,6.28,0,0,1,3.48-.85,6.29,6.29,0,0,1,3.48.85.47.47,0,0,0,.71-.57Z"/><path class="cls-2" d="M14.55,16c-.06-.13-1.41-3.1-4.19-3.1s-4.14,3-4.19,3.1a.47.47,0,0,0,.71.57,6.28,6.28,0,0,1,3.48-.85,6.29,6.29,0,0,1,3.48.85.47.47,0,0,0,.71-.57Z"/><path class="cls-2" d="M28.24,14.35a.94.94,0,0,1-.87-.59,8.72,8.72,0,0,0-5.9-5.07.94.94,0,0,1,.37-1.85,10.55,10.55,0,0,1,7.28,6.22.94.94,0,0,1-.52,1.22A.93.93,0,0,1,28.24,14.35Z"/><path class="cls-2" d="M3.76,14.35a.94.94,0,0,1-.87-1.29,10.55,10.55,0,0,1,7.28-6.22.94.94,0,0,1,.37,1.85,8.64,8.64,0,0,0-5.9,5.07A.94.94,0,0,1,3.76,14.35Z"/><path class="cls-2" d="M16,20a39.82,39.82,0,0,1-8.47-.94c-.64-.12-1.88,0-1.88,1.88,0,3.76,4.32,8.47,10.35,8.47s10.35-4.71,10.35-8.47c0-1.88-1.24-2-1.88-1.88A39.82,39.82,0,0,1,16,20Z"/><path class="cls-3" d="M7.53,20.94a29.55,29.55,0,0,0,8.47.94,29.55,29.55,0,0,0,8.47-.94S22.59,24.71,16,24.71,7.53,20.94,7.53,20.94Z"/><path class="cls-4" d="M9.27,25.86A4.71,4.71,0,0,1,.15,23.55c.64-2.52,6-8.2,6.88-8S9.91,23.34,9.27,25.86Z"/><path class="cls-4" d="M22.71,25.86a4.71,4.71,0,0,0,9.12-2.32c-.64-2.52-6-8.2-6.88-8S22.07,23.34,22.71,25.86Z"/></svg>