<svg id="Layer_2" data-name="Layer 2" xmlns="http://www.w3.org/2000/svg" viewBox="0 0 32 32.42">
  <defs>
    <style>
      .cls-1 {
        fill: #ffcc4d;
      }

      .cls-2 {
        fill: #e75b70;
      }

      .cls-3 {
        fill: #66471b;
      }
    </style>
  </defs>
  <title>1f60b</title>
  <circle class="cls-1" cx="16" cy="16" r="16"/>
  <g id="g24">
    <path id="path26" class="cls-2" d="M18.82,26.38l4.71,4.72a4.77,4.77,0,0,0,6.59,0,4.45,4.45,0,0,0,.16-6.32l-3.93-4.07a12.45,12.45,0,0,1-7.53,5.66"/>
  </g>
  <g id="g28">
    <path id="path30" class="cls-3" d="M16,28.27c-6.08,0-8.22-3.12-8.31-3.25A.94.94,0,0,1,9.25,24c.08.12,1.77,2.42,6.75,2.42a9.46,9.46,0,0,0,9.44-6.84.94.94,0,0,1,1.83.46A11.49,11.49,0,0,1,16,28.27"/>
  </g>
  <g id="g32">
    <path id="path34" class="cls-3" d="M5.65,15.05a.94.94,0,0,1-.84-1.37,5,5,0,0,1,4.61-2.41A5,5,0,0,1,14,13.69a.94.94,0,0,1-1.68.85,3.2,3.2,0,0,0-2.93-1.38,3.2,3.2,0,0,0-2.92,1.37.94.94,0,0,1-.84.52"/>
  </g>
  <g id="g36">
    <path id="path38" class="cls-3" d="M19.76,15.05a.94.94,0,0,1-.33-1.83L27,10.39a.94.94,0,0,1,.66,1.77L20.1,15a1,1,0,0,1-.33.06"/>
  </g>
</svg>
