<svg id="1f619" data-name="Layer 2" xmlns="http://www.w3.org/2000/svg" viewBox="0 0 32 32">
    <style>.cls-1 {fill: #ffcc4d;}.cls-2 {fill: #66471b;}</style>
    <circle class="cls-1" cx="16" cy="16" r="16"/>
    <path id="path26" class="cls-2" d="M18.42,24.42c1.12-.35,2.21-1,2.21-2.11,0-2.21-4.14-2.5-4.61-2.53a.41.41,0,0,0-.44.39.42.42,0,0,0,.39.45s3,.25,3,1.69S16,24,16,24h0l-.13,0h0a.4.4,0,0,0-.11.08l0,0a.38.38,0,0,0-.05.09.39.39,0,0,0,0,.08.36.36,0,0,0,0,.06s0,0,0,0,0,0,0,0a.35.35,0,0,0,0,.06.38.38,0,0,0,0,.07l0,.07,0,.06.06.05.06,0,.08,0,.06,0s3,.25,3,1.69S16,28.21,16,28.21a.42.42,0,0,0,0,.84h0c.47,0,4.61-.32,4.61-2.53,0-1.13-1.09-1.76-2.21-2.11"/>
    <path id="path30" class="cls-2" d="M14.32,16.84a.84.84,0,0,1-.8-.58c-.17-.5-.86-2-1.73-2s-1.59,1.54-1.73,2a.84.84,0,0,1-1.6-.53c.11-.32,1.1-3.1,3.33-3.1s3.22,2.78,3.33,3.1a.84.84,0,0,1-.8,1.11"/>
    <path id="path34" class="cls-2" d="M22.74,16.84a.84.84,0,0,1-.8-.58c-.17-.5-.86-2-1.73-2s-1.59,1.54-1.73,2a.84.84,0,1,1-1.6-.53c.11-.32,1.1-3.1,3.32-3.1s3.22,2.78,3.32,3.1a.84.84,0,0,1-.8,1.11"/>
</svg>
