<svg id="1f614" data-name="Layer 2" xmlns="http://www.w3.org/2000/svg" viewBox="0 0 32 32">
    <style>.cls-1 {fill: #ffcc4d;}.cls-2 {fill: #66471b;}</style>
  <circle class="cls-1" cx="16" cy="16" r="16"/>
    <path id="path26" class="cls-2" d="M15.42,15.67a.42.42,0,0,0-.51,0,5.61,5.61,0,0,1-3.12.76,5.63,5.63,0,0,1-3.12-.76.42.42,0,0,0-.64.51c.05.11,1.26,2.78,3.75,2.78s3.7-2.66,3.75-2.78a.42.42,0,0,0-.12-.5"/>
    <path id="path30" class="cls-2" d="M23.84,15.67a.42.42,0,0,0-.51,0,5.61,5.61,0,0,1-3.12.76,5.63,5.63,0,0,1-3.12-.76.42.42,0,0,0-.64.51c.05.11,1.26,2.78,3.75,2.78s3.7-2.66,3.75-2.78a.42.42,0,0,0-.12-.5"/>
    <path id="path34" class="cls-2" d="M19.37,24.42H12.63a.84.84,0,1,1,0-1.68h6.74a.84.84,0,1,1,0,1.68"/>
    <path id="path38" class="cls-2" d="M5.89,12.63a.84.84,0,0,1,0-1.68,7.1,7.1,0,0,0,5.22-3,.84.84,0,0,1,1.35,1,8.77,8.77,0,0,1-6.57,3.71"/>
    <path id="path42" class="cls-2" d="M26.11,12.63a8.77,8.77,0,0,1-6.57-3.71.84.84,0,0,1,1.35-1,7.09,7.09,0,0,0,5.23,3,.84.84,0,0,1,0,1.68"/>
</svg>
