<svg id="Layer_1" data-name="Layer 1" xmlns="http://www.w3.org/2000/svg" viewBox="0 0 32 34.03">
  <defs>
    <style>
      .cls-1 {
        fill: #ffcc4d;
      }

      .cls-2 {
        fill: #66471b;
      }

      .cls-3 {
        fill: #f5f8fa;
      }

      .cls-4 {
        fill: #2a2f33;
      }

      .cls-5 {
        fill: #e75b70;
      }
    </style>
  </defs>
  <title>1f61c</title>
  <circle class="cls-1" cx="16" cy="16" r="16"/>
  <g id="g24">
    <path id="path26" class="cls-2" d="M13.62,15c-.06-.13-1.41-3.12-4.2-3.12s-4.14,3-4.2,3.12a.47.47,0,0,0,.71.57,6.28,6.28,0,0,1,3.49-.85,6.29,6.29,0,0,1,3.49.85.47.47,0,0,0,.28.09.47.47,0,0,0,.43-.66"/>
  </g>
  <g id="g28">
    <path id="path30" class="cls-3" d="M28.27,12.79a6.13,6.13,0,1,1-6.13-6.15,6.14,6.14,0,0,1,6.13,6.15"/>
  </g>
  <g id="g32">
    <path id="path34" class="cls-4" d="M24.5,12.79a2.36,2.36,0,1,1-2.36-2.36,2.36,2.36,0,0,1,2.36,2.36"/>
  </g>
  <g id="g36">
    <path id="path38" class="cls-2" d="M5.65,20.82c0,3.75,4.33,8.51,10.37,8.51s10.37-4.73,10.37-8.51a46.94,46.94,0,0,1-20.73,0"/>
  </g>
  <g id="g40">
    <path id="path42" class="cls-5" d="M10.37,22.6v5.75A5.44,5.44,0,0,0,16,34a5.44,5.44,0,0,0,5.65-5.67V22.64a29.33,29.33,0,0,1-11.31,0"/>
  </g>
</svg>
