<svg id="1f61f" data-name="Layer 2" xmlns="http://www.w3.org/2000/svg" xmlns:xlink="http://www.w3.org/1999/xlink" viewBox="0 0 32 32">
  <style>.cls-1 {fill: none;}.cls-2 { fill: #ffcc4d;}.cls-3 {clip-path: url(#clip-path);}.cls-4 {fill: #66471b;}</style>
  <circle class="cls-2" cx="16" cy="16" r="16"/>
  <path id="path22" class="cls-2" d="M30.32,16A14.32,14.32,0,1,1,16,1.68,14.32,14.32,0,0,1,30.32,16"/>
  <path id="path26" class="cls-4" d="M13.47,15.16c0,1.4-.75,2.53-1.68,2.53s-1.68-1.13-1.68-2.53.75-2.53,1.68-2.53,1.68,1.13,1.68,2.53"/>
  <path id="path30" class="cls-4" d="M21.89,15.16c0,1.4-.75,2.53-1.68,2.53s-1.68-1.13-1.68-2.53.75-2.53,1.68-2.53,1.68,1.13,1.68,2.53"/>
  <path id="path34" class="cls-4" d="M20.62,25.16s-1-3.69-4.62-3.69-4.61,3.65-4.62,3.69a.42.42,0,0,0,.19.46.43.43,0,0,0,.5-.05s.85-.73,3.92-.73,3.89.7,3.92.73a.42.42,0,0,0,.7-.41"/>
  <path id="path38" class="cls-4" d="M25.26,10.95a7.49,7.49,0,0,1-6.65-3.83.84.84,0,0,1,1.51-.76,5.81,5.81,0,0,0,5.14,2.91.84.84,0,1,1,0,1.68"/>
  <path id="path42" class="cls-4" d="M6.74,10.95a.84.84,0,1,1,0-1.68c4.28,0,5-2.63,5.08-2.74a.85.85,0,0,1,1-.6.84.84,0,0,1,.6,1c0,.16-1.07,4-6.71,4"/>
</svg>
