<svg id="Layer_1" data-name="Layer 1" xmlns="http://www.w3.org/2000/svg" viewBox="0 0 32 33.95">
  <defs>
    <style>
      .cls-1 {
        fill: #ffcc4d;
      }

      .cls-2 {
        fill: #66471b;
      }

      .cls-3 {
        fill: #e75b70;
      }
    </style>
  </defs>
  <title>1f61d</title>
  <circle class="cls-1" cx="16" cy="16" r="16"/>
  <g id="g14">
    <g id="g24">
      <path id="path26" class="cls-2" d="M5.78,20.78c0,3.74,4.3,8.49,10.3,8.49s10.3-4.72,10.3-8.49a46.48,46.48,0,0,1-20.6,0"/>
    </g>
    <g id="g28">
      <path id="path30" class="cls-3" d="M10.47,22.55v5.74a5.42,5.42,0,0,0,5.62,5.66,5.42,5.42,0,0,0,5.62-5.66v-5.7a29,29,0,0,1-11.24,0"/>
    </g>
    <g id="g32">
      <path id="path34" class="cls-2" d="M27.88,15.28a16.83,16.83,0,0,0-4.35-2.21,1.47,1.47,0,0,0,0-.34,1.41,1.41,0,0,0-.34-.91,12.85,12.85,0,0,1,3.15-.51.94.94,0,0,0,0-1.89c-.21,0-5.1,0-8.15,3.11a1,1,0,0,0-.2,1,.94.94,0,0,0,.86.58,14.74,14.74,0,0,1,7.87,2.64.93.93,0,0,0,1.31-.19,1,1,0,0,0-.19-1.32"/>
    </g>
    <g id="g36">
      <path id="path38" class="cls-2" d="M13.94,12.54C10.89,9.47,6,9.43,5.78,9.43a.94.94,0,0,0,0,1.89,12.9,12.9,0,0,1,3.15.51,1.37,1.37,0,0,0-.29,1.24,16.82,16.82,0,0,0-4.35,2.21A1,1,0,0,0,4.1,16.6a.93.93,0,0,0,1.31.19,14.64,14.64,0,0,1,7.86-2.64.94.94,0,0,0,.87-.58,1,1,0,0,0-.2-1"/>
    </g>
  </g>
</svg>
