<svg id="1f613" data-name="Layer 2" xmlns="http://www.w3.org/2000/svg" viewBox="0 0 32 32">
    <style>.cls-1 {fill: #ffcc4d;}.cls-2 {fill: #66471b;}.cls-3 {fill: #65abde;}</style>
    <circle class="cls-1" cx="16" cy="16" r="16"/>
    <path id="path26" class="cls-2" d="M24.81,15.83c0-.11-1.26-2.78-3.75-2.78s-3.7,2.66-3.75,2.78a.42.42,0,0,0,.12.5.42.42,0,0,0,.51,0,5.62,5.62,0,0,1,3.12-.76,5.63,5.63,0,0,1,3.12.76.42.42,0,0,0,.25.08.42.42,0,0,0,.38-.59"/>
    <path id="path30" class="cls-2" d="M15.54,15.83c-.05-.11-1.26-2.78-3.75-2.78S8.09,15.72,8,15.83a.42.42,0,0,0,.63.51,5.63,5.63,0,0,1,3.12-.76,5.63,5.63,0,0,1,3.12.76.42.42,0,0,0,.25.08.42.42,0,0,0,.38-.59"/>
    <path id="path34" class="cls-2" d="M11.79,24.42s.84-3.37,4.21-3.37,4.21,3.37,4.21,3.37-.84-.84-4.21-.84-4.21.84-4.21.84"/>
    <path id="path38" class="cls-3" d="M10.11,10.11a4.21,4.21,0,0,1-8.42,0c0-2.33,3.37-8.42,4.21-8.42s4.21,6.1,4.21,8.42"/>

</svg>
