<svg id="1f610" data-name="Layer 2" xmlns="http://www.w3.org/2000/svg" viewBox="0 0 32 32">
    <style>.cls-1 {fill: #ffcc4d;}.cls-2 {fill: #66471b;}</style>
  <circle class="cls-1" cx="16" cy="16" r="16"/>
  <path id="path26" class="cls-2" d="M12.63,14.74c0,1.63-.94,2.95-2.11,2.95s-2.11-1.32-2.11-2.95.94-2.95,2.11-2.95,2.11,1.32,2.11,2.95"/>
  <path id="path30" class="cls-2" d="M23.58,14.74c0,1.63-.94,2.95-2.11,2.95s-2.11-1.32-2.11-2.95.94-2.95,2.11-2.95,2.11,1.32,2.11,2.95"/>
  <path id="path34" class="cls-2" d="M21.89,22.74H10.11a.84.84,0,1,1,0-1.68H21.89a.84.84,0,1,1,0,1.68"/>
</svg>
