<svg id="1f61e" data-name="Layer 2" xmlns="http://www.w3.org/2000/svg" xmlns:xlink="http://www.w3.org/1999/xlink" viewBox="0 0 32 32">
  <style>.cls-1 {fill: none;}.cls-2 {fill: #ffcc4d;}.cls-3 {clip-path: url(#clip-path);}.cls-4 {fill: #66471b;}</style>
  <circle class="cls-2" cx="16" cy="16" r="16"/>
  <path id="path22" class="cls-2" d="M30.32,16A14.32,14.32,0,1,1,16,1.68,14.32,14.32,0,0,1,30.32,16"/>
  <path id="path26" class="cls-4" d="M20.62,25.16s-1-3.69-4.62-3.69-4.61,3.65-4.62,3.69a.42.42,0,0,0,.19.46.43.43,0,0,0,.5-.05s.85-.73,3.92-.73,3.89.7,3.92.73a.42.42,0,0,0,.7-.41"/>
  <path id="path30" class="cls-4" d="M22.55,14a3.34,3.34,0,0,0-.88-.12A5.06,5.06,0,0,0,18.2,15.7a.42.42,0,0,0,.48.66A4.07,4.07,0,0,1,20,16.18a7.2,7.2,0,0,1,1.89.27A5.62,5.62,0,0,1,24.69,18a.42.42,0,0,0,.33.16.43.43,0,0,0,.17,0,.42.42,0,0,0,.25-.45c0-.12-.49-3-2.89-3.67"/>
  <path id="path34" class="cls-4" d="M10.3,13.91a3.32,3.32,0,0,0-.8.1c-2.42.6-3,3.47-3,3.59a.42.42,0,0,0,.74.34,5.62,5.62,0,0,1,2.85-1.48,7.34,7.34,0,0,1,1.75-.22,4.25,4.25,0,0,1,1.46.21.43.43,0,0,0,.17,0,.42.42,0,0,0,.26-.76,4.93,4.93,0,0,0-3.45-1.82"/>
</svg>
