<svg id="1f618" data-name="Layer 2" xmlns="http://www.w3.org/2000/svg" viewBox="0 0 32 32">
    <style>.cls-1 {fill: #ffcc4d;}.cls-2 {fill: #67481c;}.cls-3 {fill: #e75c71; }</style>
    <circle class="cls-1" cx="16" cy="16" r="16"/>
    <path id="path26" class="cls-2" d="M12.63,13.89c0,1.63-.94,2.95-2.11,2.95s-2.11-1.32-2.11-2.95.94-2.95,2.11-2.95,2.11,1.32,2.11,2.95"/>
    <path id="path30" class="cls-2" d="M24.81,15.83c0-.11-1.26-2.78-3.75-2.78s-3.7,2.66-3.75,2.78a.41.41,0,0,0,.63.5,5.62,5.62,0,0,1,3.12-.76,5.63,5.63,0,0,1,3.12.76.42.42,0,0,0,.64-.51"/>
    <path id="path34" class="cls-2" d="M5.89,10.11a.84.84,0,0,1-.67-1.35A8.77,8.77,0,0,1,11.79,5a.84.84,0,0,1,0,1.68,7.1,7.1,0,0,0-5.22,3,.84.84,0,0,1-.67.34"/>
    <path id="path38" class="cls-2" d="M25.26,12.63a.84.84,0,0,1-.67-.34,6.28,6.28,0,0,0-5.9-2.21.84.84,0,1,1-.33-1.65h0a7.91,7.91,0,0,1,7.58,2.85.84.84,0,0,1-.67,1.35"/>
    <path id="path42" class="cls-2" d="M18.42,24.42c1.12-.35,2.21-1,2.21-2.11,0-2.21-4.14-2.5-4.61-2.53a.41.41,0,0,0-.44.38h0a.42.42,0,0,0,.39.45h0s3,.25,3,1.69S16,24,16,24h-.12a.38.38,0,0,0-.11.08h0a.38.38,0,0,0,0,.09.47.47,0,0,0,0,.08.47.47,0,0,0,0,.06h0a.35.35,0,0,0,0,.06.38.38,0,0,0,0,.07v.13l.07,0H16s3,.25,3,1.69-3,1.9-3,1.9A.42.42,0,1,0,16,29h0c.47,0,4.61-.32,4.61-2.53,0-1.13-1.09-1.76-2.21-2.11"/>
    <path id="path46" class="cls-3" d="M30.66,23.77a2.57,2.57,0,0,0-3.54-3.39,2.57,2.57,0,0,0-4.85-.7,2.5,2.5,0,0,0-.19.55c-.65,2.15.54,5.34,1.85,6.69,1.87.2,5.12-.82,6.41-2.66a2.6,2.6,0,0,0,.32-.5"/>
</svg>
