<svg id="1f612" data-name="Layer 2" xmlns="http://www.w3.org/2000/svg" viewBox="0 0 32 32">
    <style>.cls-1 {fill: #ffcc4d;}.cls-2 {fill: #66471b;}</style>
  <circle class="cls-1" cx="16" cy="16" r="16"/>
    <path id="path26" class="cls-2" d="M22.3,24.32c0-.15-1-3.69-6.3-3.69s-6.27,3.54-6.3,3.69a.42.42,0,0,0,.7.4S12,23.16,16,23.16s5.58,1.55,5.6,1.56a.42.42,0,0,0,.7-.4"/>
    <path id="path30" class="cls-2" d="M25.26,12.63a.84.84,0,0,1-.67-.34c-2-2.73-5.48-.71-5.63-.63a.84.84,0,0,1-.87-1.44c1.68-1,5.49-2.09,7.84,1.06a.84.84,0,0,1-.67,1.35"/>
    <path id="path34" class="cls-2" d="M6.74,12.63a.84.84,0,0,1-.67-1.35c2.36-3.14,6.16-2.07,7.84-1.06A.84.84,0,0,1,13,11.67c-.15-.09-3.6-2.08-5.63.62a.84.84,0,0,1-.67.34"/>
    <path id="path38" class="cls-2" d="M25.26,14.32a.84.84,0,0,0-.84-.84H18.53a.84.84,0,0,0,0,1.68h4.29a1.26,1.26,0,0,0,2.45-.42,1.3,1.3,0,0,0,0-.27.76.76,0,0,0,0-.15"/>
    <path id="path42" class="cls-2" d="M14.32,14.32a.84.84,0,0,0-.84-.84H7.58a.84.84,0,0,0,0,1.68h4.29a1.26,1.26,0,0,0,2.45-.42,1.3,1.3,0,0,0,0-.27.82.82,0,0,0,0-.15"/>

</svg>
