<svg id="1f616" data-name="Layer 2" xmlns="http://www.w3.org/2000/svg" viewBox="0 0 32 32">
    <style>.cls-1 {fill: #ffcc4d;}.cls-2 {fill: #66471b;}</style>
  <circle class="cls-1" cx="16" cy="16" r="16"/>
    <path id="path26" class="cls-2" d="M5.89,11.79a.84.84,0,0,1,0-1.68,7.1,7.1,0,0,0,5.22-3,.84.84,0,0,1,1.35,1,8.77,8.77,0,0,1-6.57,3.71"/>
    <path id="path30" class="cls-2" d="M26.11,11.79a8.77,8.77,0,0,1-6.57-3.71.84.84,0,0,1,1.35-1,7.09,7.09,0,0,0,5.23,3,.84.84,0,0,1,0,1.68"/>
    <path id="path34" class="cls-2" d="M26.61,17.85a15.14,15.14,0,0,0-3.91-2,1.31,1.31,0,0,0,0-.3,1.25,1.25,0,0,0-.3-.81,11.63,11.63,0,0,1,2.83-.45.84.84,0,0,0,0-1.68c-.19,0-4.59,0-7.33,2.77a.84.84,0,0,0,.6,1.44A13.31,13.31,0,0,1,25.6,19.2a.84.84,0,0,0,1-1.35"/>
    <path id="path38" class="cls-2" d="M14.07,15.4c-2.74-2.74-7.15-2.77-7.33-2.77a.84.84,0,0,0,0,1.68,11.68,11.68,0,0,1,2.83.45,1.22,1.22,0,0,0-.26,1.11,15.14,15.14,0,0,0-3.91,2,.84.84,0,1,0,1,1.35,13.23,13.23,0,0,1,7.07-2.36.84.84,0,0,0,.6-1.44"/>
    <path id="path42" class="cls-2" d="M16,26.11a.84.84,0,0,1-.66-.32l-2.69-3.36-1.87,2.5A.84.84,0,0,1,9.51,25l-.84-.84A.84.84,0,1,1,9.86,23l.16.16L12,20.55a.84.84,0,0,1,1.33,0L16,23.91l2.71-3.39a.85.85,0,0,1,.67-.32.84.84,0,0,1,.66.34L22,23.14l.16-.16a.84.84,0,1,1,1.19,1.19l-.84.84a.82.82,0,0,1-.66.24.84.84,0,0,1-.61-.33l-1.87-2.5-2.69,3.36a.84.84,0,0,1-.66.32"/>
</svg>
