<svg id="Layer_3" data-name="Layer 3" xmlns="http://www.w3.org/2000/svg" viewBox="0 0 32 32"><defs><style>.cls-1{fill:#ffcc4d;}.cls-2{fill:#f27792;}.cls-3{fill:#66471b;}</style></defs><title>kiss_emoji</title><circle class="cls-1" cx="16" cy="16" r="16"/><circle class="cls-2" cx="5.87" cy="18.7" r="4.71"/><circle class="cls-2" cx="26.57" cy="18.7" r="4.71"/><path class="cls-3" d="M26,15.62a5.17,5.17,0,0,0-8.31,0,.47.47,0,0,0,.67.64,6.28,6.28,0,0,1,3.48-.85,6.29,6.29,0,0,1,3.48.85.47.47,0,0,0,.67-.64Z"/><path class="cls-3" d="M10.57,13.52a5.15,5.15,0,0,0-4.16,2.09.47.47,0,0,0,.67.64,6.28,6.28,0,0,1,3.48-.85,6.29,6.29,0,0,1,3.48.85.47.47,0,0,0,.67-.64A5.15,5.15,0,0,0,10.57,13.52Z"/><path class="cls-3" d="M19.86,24.35c1.26-.39,2.47-1.09,2.47-2.35,0-2.47-4.62-2.79-5.15-2.82a.46.46,0,0,0-.5.44.47.47,0,0,0,.44.5s3.33.28,3.33,1.88-3.29,1.88-3.33,1.88h0a.41.41,0,0,0-.29.15v0a.5.5,0,0,0-.07.12.48.48,0,0,0,0,.08.53.53,0,0,0,0,.07s0,0,0,0,0,0,0,0a.41.41,0,0,0,0,.07.43.43,0,0,0,0,.08l0,.08,0,.06.08.06.07,0,.09,0,.07,0s3.33.28,3.33,1.88-3.29,1.88-3.33,1.88a.47.47,0,0,0,0,.94h0c.53,0,5.15-.36,5.15-2.82C22.34,25.44,21.12,24.74,19.86,24.35Z"/><path class="cls-3" d="M28.46,14a.94.94,0,0,1-.75-.38,7.93,7.93,0,0,0-5.84-3.39.94.94,0,0,1,0-1.88,9.8,9.8,0,0,1,7.34,4.14A.94.94,0,0,1,28.46,14Z"/><path class="cls-3" d="M4,14a.94.94,0,0,1-.75-1.51,9.8,9.8,0,0,1,7.34-4.14.94.94,0,0,1,0,1.88,7.94,7.94,0,0,0-5.84,3.39A.94.94,0,0,1,4,14Z"/></svg>