<svg id="1f620" data-name="Layer 2" xmlns="http://www.w3.org/2000/svg" viewBox="0 0 32 32">
    <style>.cls-1 {fill: #ffcc4d;}.cls-2 {fill: #66471b;}</style>
    <circle class="cls-1" cx="16" cy="16" r="16"/>
    <path id="path26" class="cls-2" d="M22.3,26c0-.15-1-3.69-6.3-3.69S9.73,25.85,9.7,26a.42.42,0,0,0,.2.47.43.43,0,0,0,.5-.06S12,24.84,16,24.84s5.58,1.55,5.6,1.56a.42.42,0,0,0,.7-.4"/>
    <path id="path30" class="cls-2" d="M14.07,15.4c-2.74-2.74-7.15-2.77-7.33-2.77a.84.84,0,0,0,0,1.68,11.73,11.73,0,0,1,3.35.62,3.44,3.44,0,0,0-.83,2.33c0,1.63.94,2.95,2.11,2.95s2.11-1.32,2.11-2.95a3.93,3.93,0,0,0,0-.43h0a.84.84,0,0,0,.6-1.44"/>
    <path id="path34" class="cls-2" d="M25.26,12.63c-.19,0-4.59,0-7.33,2.77a.84.84,0,0,0,.6,1.44h0c0,.14,0,.28,0,.43,0,1.63.94,2.95,2.11,2.95s2.11-1.32,2.11-2.95a3.44,3.44,0,0,0-.83-2.33,11.73,11.73,0,0,1,3.35-.62.84.84,0,0,0,0-1.68"/>
</svg>
