<svg id="1f629" data-name="Layer 2" xmlns="http://www.w3.org/2000/svg" xmlns:xlink="http://www.w3.org/1999/xlink" viewBox="0 0 32 32">
    <style>.cls-1 {fill: none;}.cls-2 {fill: #ffcc4d; }.cls-3 {clip-path: url(#clip-path);}.cls-4 {fill: #66471b;}.cls-5 {fill: #fff;}</style>
    <circle class="cls-2" cx="16" cy="16" r="16"/>
    <path id="path22" class="cls-2" d="M30.32,16A14.32,14.32,0,1,1,16,1.68,14.32,14.32,0,0,1,30.32,16"/>
    <path id="path26" class="cls-4" d="M14.88,9.72a.42.42,0,0,0-.5.12,5.62,5.62,0,0,1-2.81,1.55,7.19,7.19,0,0,1-1.89.27,4.08,4.08,0,0,1-1.32-.18.42.42,0,0,0-.48.66A5,5,0,0,0,11.36,14a3.37,3.37,0,0,0,.88-.12c2.4-.66,2.87-3.54,2.89-3.67a.42.42,0,0,0-.25-.45"/>
    <path id="path30" class="cls-4" d="M24.12,11.53a.42.42,0,0,0-.5-.13,4.2,4.2,0,0,1-1.46.22,7.33,7.33,0,0,1-1.75-.22,5.61,5.61,0,0,1-2.84-1.48.42.42,0,0,0-.74.34c0,.12.56,3,3,3.59a3.35,3.35,0,0,0,.8.1A5,5,0,0,0,24.12,12a.42.42,0,0,0,0-.51"/>
    <path id="path34" class="cls-4" d="M9.26,9.26a.84.84,0,0,1-.21-1.66,7.69,7.69,0,0,0,4.51-3.77.84.84,0,1,1,1.51.75,9.26,9.26,0,0,1-5.6,4.65l-.21,0"/>
    <path id="path38" class="cls-4" d="M22.74,9.26l-.2,0a9.26,9.26,0,0,1-5.6-4.65.84.84,0,0,1,1.51-.75,7.69,7.69,0,0,0,4.51,3.77.84.84,0,0,1-.21,1.66"/>
    <path id="path42" class="cls-4" d="M16,25.23a35.64,35.64,0,0,0-7.58.84c-.57.11-1.68,0-1.68-1.68,0-3.37,3.87-7.58,9.26-7.58s9.26,4.21,9.26,7.58c0,1.68-1.11,1.8-1.68,1.68A35.64,35.64,0,0,0,16,25.23"/>
    <path id="path46" class="cls-5" d="M9.26,21.89A23.3,23.3,0,0,1,16,21.05a23.31,23.31,0,0,1,6.74.84S21.05,18.53,16,18.53s-6.74,3.37-6.74,3.37"/>
</svg>
