<svg id="1f62b" data-name="Layer 2" xmlns="http://www.w3.org/2000/svg" xmlns:xlink="http://www.w3.org/1999/xlink" viewBox="0 0 32 32">
    <style>.cls-1 {fill: none;}.cls-2 {fill: #ffcc4d;}.cls-3 {clip-path: url(#clip-path);}.cls-4 {fill: #66471b;}.cls-5 {fill: #cdd7de;}</style>
    <circle class="cls-2" cx="16" cy="16" r="16"/>
    <path id="path22" class="cls-2" d="M30.32,16A14.32,14.32,0,1,1,16,1.68,14.32,14.32,0,0,1,30.32,16"/>
    <path id="path26" class="cls-4" d="M16,18.95a8.47,8.47,0,0,0-8.84,7.11.42.42,0,0,0,.42.47l.13,0A34,34,0,0,1,16,24.84a21.3,21.3,0,0,1,8.24,1.64.42.42,0,0,0,.6-.43A8.47,8.47,0,0,0,16,18.95"/>
    <path id="path30" class="cls-4" d="M25.26,9.26a7.49,7.49,0,0,1-6.65-3.83.84.84,0,0,1,1.51-.76,5.81,5.81,0,0,0,5.14,2.91.84.84,0,1,1,0,1.68"/>
    <path id="path34" class="cls-4" d="M6.74,9.26a.84.84,0,0,1,0-1.68c4.28,0,5-2.63,5.08-2.74a.85.85,0,0,1,1-.6.84.84,0,0,1,.6,1c0,.16-1.07,4-6.71,4"/>
    <path id="path38" class="cls-5" d="M16,20.21a7.38,7.38,0,0,1,5.05,1.68H10.95A7.38,7.38,0,0,1,16,20.21"/>
    <path id="path42" class="cls-4" d="M5.9,16.84a.84.84,0,0,1-.51-1.52,15.31,15.31,0,0,1,5.77-2.47,11.31,11.31,0,0,0-4.43-1.07.84.84,0,0,1,0-1.68c.19,0,4.59,0,7.33,2.77a.84.84,0,0,1-.6,1.44A13.23,13.23,0,0,0,6.4,16.67a.84.84,0,0,1-.5.17"/>
    <path id="path46" class="cls-4" d="M26.1,16.84a.84.84,0,0,1-.5-.17,13.31,13.31,0,0,0-7.07-2.36.84.84,0,0,1-.6-1.44c2.74-2.74,7.15-2.77,7.33-2.77a.84.84,0,0,1,0,1.68,11.31,11.31,0,0,0-4.43,1.07,15.31,15.31,0,0,1,5.77,2.47.84.84,0,0,1-.51,1.51"/>
</svg>
