<svg id="1f622" data-name="Layer 2" xmlns="http://www.w3.org/2000/svg" viewBox="0 0 32 32">
    <style>.cls-1 {fill: #ffcc4d;}.cls-2 {fill: #66471b;}.cls-3 {fill: #65abde;}</style>
    <circle class="cls-1" cx="16" cy="16" r="16"/>
    <path id="path26" class="cls-2" d="M12.73,14.74c0,1.63-.95,2.95-2.12,2.95s-2.12-1.32-2.12-2.95.95-2.95,2.12-2.95,2.12,1.32,2.12,2.95"/>
    <path id="path30" class="cls-2" d="M23.76,14.74c0,1.63-.95,2.95-2.12,2.95s-2.12-1.32-2.12-2.95.95-2.95,2.12-2.95,2.12,1.32,2.12,2.95"/>
    <path id="path34" class="cls-2" d="M5.94,11.79a.85.85,0,0,1-.51-.17.84.84,0,0,1-.17-1.18,8.86,8.86,0,0,1,6.62-3.71.84.84,0,1,1,0,1.68,7.17,7.17,0,0,0-5.26,3,.85.85,0,0,1-.68.34"/>
    <path id="path38" class="cls-2" d="M26.31,11.79a.85.85,0,0,1-.68-.34,7.17,7.17,0,0,0-5.27-3,.84.84,0,1,1,0-1.68A8.86,8.86,0,0,1,27,10.44a.84.84,0,0,1-.17,1.18.85.85,0,0,1-.51.17"/>
    <path id="path42" class="cls-2" d="M20.78,24.32s-1-3.69-4.65-3.69-4.65,3.65-4.65,3.69a.42.42,0,0,0,.2.46.44.44,0,0,0,.51-.05s.86-.73,4-.73,3.92.7,4,.73a.43.43,0,0,0,.29.12.43.43,0,0,0,.21-.05.42.42,0,0,0,.2-.47"/>
    <path id="path46" class="cls-3" d="M14.43,27.79a4.24,4.24,0,0,1-8.49,0c0-2.33,3.39-8.42,4.24-8.42s4.24,6.1,4.24,8.42"/>
</svg>
