<svg id="1f627" data-name="Layer 2" xmlns="http://www.w3.org/2000/svg" xmlns:xlink="http://www.w3.org/1999/xlink" viewBox="0 0 32 32">
  <style>.cls-1 {fill: none; }.cls-2 {fill: #ffcc4d;}.cls-3 {clip-path: url(#clip-path);}.cls-4 { fill: #66471b;}</style>
  <circle class="cls-2" cx="16" cy="16" r="16"/>
  <path id="path22" class="cls-2" d="M30.32,16A14.32,14.32,0,1,1,16,1.68,14.32,14.32,0,0,1,30.32,16"/>
  <path id="path26" class="cls-4" d="M12.63,14.74c0,1.63-.94,2.95-2.11,2.95s-2.11-1.32-2.11-2.95.94-2.95,2.11-2.95,2.11,1.32,2.11,2.95"/>
  <path id="path30" class="cls-4" d="M23.58,14.74c0,1.63-.94,2.95-2.11,2.95s-2.11-1.32-2.11-2.95.94-2.95,2.11-2.95,2.11,1.32,2.11,2.95"/>
  <path id="path34" class="cls-4" d="M5.89,10.95A.84.84,0,0,1,5.22,9.6a8.77,8.77,0,0,1,6.57-3.71.84.84,0,0,1,0,1.68,7.1,7.1,0,0,0-5.22,3,.84.84,0,0,1-.67.34"/>
  <path id="path38" class="cls-4" d="M26.11,10.95a.84.84,0,0,1-.67-.34,7.09,7.09,0,0,0-5.23-3,.84.84,0,0,1,0-1.68A8.77,8.77,0,0,1,26.78,9.6a.84.84,0,0,1-.67,1.35"/>
  <path id="path42" class="cls-4" d="M20.62,24.32s-1-3.69-4.62-3.69-4.61,3.65-4.62,3.69a.42.42,0,0,0,.19.46.43.43,0,0,0,.5-.05S12.93,24,16,24s3.89.7,3.92.73a.42.42,0,0,0,.7-.41"/>
</svg>
