<svg id="Layer_2" data-name="Layer 2" xmlns="http://www.w3.org/2000/svg" viewBox="0 0 32 32">
  <defs>
    <style>
      .cls-1 {
        fill: #ffcc4d;
      }

      .cls-2 {
        fill: #66471b;
      }

      .cls-3 {
        fill: #f5f8fa;
      }
    </style>
  </defs>
  <title>1f62c</title>
  <circle class="cls-1" cx="16" cy="16" r="16"/>
  <g id="g14">
    <g id="g24">
      <path id="path26" class="cls-2" d="M24.47,18H7.53a3.79,3.79,0,0,0,0,7.57H24.47a3.79,3.79,0,0,0,0-7.57"/>
    </g>
    <path id="path28" class="cls-3" d="M21.65,19.88H16.94v3.79h4.71Z"/>
    <g id="g30">
      <path id="path32" class="cls-3" d="M24.47,19.88h-.94v3.79h.94a1.89,1.89,0,0,0,0-3.79"/>
    </g>
    <g id="g34">
      <path id="path36" class="cls-3" d="M7.53,19.88a1.89,1.89,0,0,0,0,3.79h.94V19.88Z"/>
    </g>
    <path id="path38" class="cls-3" d="M10.35,23.66h4.71V19.88H10.35Z"/>
    <g id="g40">
      <path id="path42" class="cls-2" d="M12.24,12.31c0,1.57-.9,2.84-2,2.84s-2-1.27-2-2.84.9-2.84,2-2.84,2,1.27,2,2.84"/>
    </g>
    <g id="g44">
      <path id="path46" class="cls-2" d="M23.53,12.12c0,1.46-.84,2.65-1.88,2.65s-1.88-1.19-1.88-2.65.84-2.65,1.88-2.65,1.88,1.19,1.88,2.65"/>
    </g>
  </g>
</svg>
