<svg id="Layer_2" data-name="Layer 2" xmlns="http://www.w3.org/2000/svg" viewBox="0 0 32 32">
  <defs>
    <style>
      .cls-1 {
        fill: #ffcc4d;
      }

      .cls-2 {
        fill: #66471b;
      }
    </style>
  </defs>
  <title>1f62e</title>
  <circle class="cls-1" cx="16" cy="16" r="16"/>
  <g id="g24">
    <path id="path26" class="cls-2" d="M12.63,13.61c0,1.4-.81,2.53-1.8,2.53S9,15,9,13.61s.81-2.53,1.8-2.53,1.8,1.13,1.8,2.53"/>
  </g>
  <g id="g28">
    <path id="path30" class="cls-2" d="M22.74,13.44c0,1.3-.75,2.36-1.68,2.36s-1.68-1.06-1.68-2.36.75-2.36,1.68-2.36,1.68,1.06,1.68,2.36"/>
  </g>
  <g id="g32">
    <path id="path34" class="cls-2" d="M19.37,22.87c0,2.33-1.51,4.21-3.37,4.21s-3.37-1.88-3.37-4.21,1.51-4.21,3.37-4.21,3.37,1.89,3.37,4.21"/>
  </g>
</svg>
