<svg id="Layer_2" data-name="Layer 2" xmlns="http://www.w3.org/2000/svg" viewBox="0 0 32 32">
  <defs>
    <style>
      .cls-1 {
        fill: #ffcc4d;
      }

      .cls-2 {
        fill: #66471b;
      }
    </style>
  </defs>
  <title>1f62f</title>
  <circle class="cls-1" cx="16" cy="16" r="16"/>
  <g id="Layer_3" data-name="Layer 3">
    <g id="g24">
      <path id="path26" class="cls-2" d="M18.53,22.32A2.76,2.76,0,0,1,16,25.26a2.76,2.76,0,0,1-2.53-2.95A2.76,2.76,0,0,1,16,19.37a2.76,2.76,0,0,1,2.53,2.95"/>
    </g>
    <g id="g28">
      <path id="path30" class="cls-2" d="M26.53,10.53a.84.84,0,0,1-.67-.34,7.09,7.09,0,0,0-5.23-3,.84.84,0,0,1,0-1.68A8.77,8.77,0,0,1,27.2,9.18a.84.84,0,0,1-.67,1.35"/>
    </g>
    <g id="g32">
      <path id="path34" class="cls-2" d="M5.47,10.53A.84.84,0,0,1,4.8,9.18a8.77,8.77,0,0,1,6.57-3.71.84.84,0,0,1,0,1.68,7.1,7.1,0,0,0-5.22,3,.84.84,0,0,1-.67.34"/>
    </g>
    <g id="g36">
      <path id="path38" class="cls-2" d="M12.63,13.47c0,1.4-.81,2.53-1.8,2.53S9,14.87,9,13.47s.81-2.53,1.8-2.53,1.8,1.13,1.8,2.53"/>
    </g>
    <g id="g40">
      <path id="path42" class="cls-2" d="M22.74,13.31c0,1.3-.75,2.36-1.68,2.36s-1.68-1.06-1.68-2.36.75-2.36,1.68-2.36,1.68,1.06,1.68,2.36"/>
    </g>
  </g>
</svg>
