<svg id="1f62a" data-name="Layer 2" xmlns="http://www.w3.org/2000/svg" xmlns:xlink="http://www.w3.org/1999/xlink" viewBox="0 0 32 32">
  <style>.cls-1 {fill: none;}.cls-2 {fill: #ffcc4d;}.cls-3 {clip-path: url(#clip-path);}.cls-4 {fill: #66471b;}.cls-5 {fill: #65abde;}</style>
  <circle class="cls-2" cx="16" cy="16" r="16"/>
  <path id="path22" class="cls-2" d="M30.32,16A14.32,14.32,0,1,1,16,1.68,14.32,14.32,0,0,1,30.32,16"/>
  <path id="path26" class="cls-4" d="M20.62,25.16s-1-3.69-4.62-3.69-4.61,3.65-4.62,3.69a.42.42,0,0,0,.19.46.43.43,0,0,0,.5-.05s.85-.73,3.92-.73,3.89.7,3.92.73a.42.42,0,0,0,.7-.41"/>
  <path id="path30" class="cls-4" d="M14.07,15.66a5.63,5.63,0,0,1-3.12.76,5.62,5.62,0,0,1-3.11-.76.42.42,0,0,0-.6.57,4.63,4.63,0,0,0,7.44,0,.42.42,0,0,0-.6-.57"/>
  <path id="path34" class="cls-4" d="M24.71,15.7a.42.42,0,0,0-.54,0,5.61,5.61,0,0,1-3.12.76,5.62,5.62,0,0,1-3.12-.76.42.42,0,0,0-.6.57,4.63,4.63,0,0,0,7.44,0,.42.42,0,0,0-.06-.54"/>
  <path id="path38" class="cls-4" d="M26.95,14.32a.84.84,0,0,1-.67-.34,7.09,7.09,0,0,0-5.23-3,.84.84,0,0,1,0-1.68A8.77,8.77,0,0,1,27.62,13a.84.84,0,0,1-.67,1.35"/>
  <path id="path42" class="cls-4" d="M5.05,14.32A.84.84,0,0,1,4.38,13a8.77,8.77,0,0,1,6.57-3.71.84.84,0,0,1,0,1.68,7.1,7.1,0,0,0-5.22,3,.84.84,0,0,1-.67.34"/>
  <path id="path46" class="cls-5" d="M20.21,20.21c5.23,0,10.95,3.37,10.95,7.58,0,3.37-2.53,3.37-2.53,3.37-6.74,0-.84-7.58-8.42-10.95"/>
</svg>
