<svg xmlns="http://www.w3.org/2000/svg" viewBox="0 0 32 32.98">
  <defs>
    <style>
      .cls-1 {
        fill: #ffcc4d;
      }

      .cls-2 {
        fill: #66471b;
      }

      .cls-3 {
        fill: #65abde;
      }

      .cls-4 {
        fill: #e75b70;
      }
    </style>
  </defs>
  <title>1f62d</title>
  <g id="Layer_2" data-name="Layer 2">
    <circle class="cls-1" cx="16" cy="16" r="16"/>
  </g>
  <g id="Layer_3" data-name="Layer 3">
    <g id="g24">
      <path id="path26" class="cls-2" d="M19.37,24.5c0,2.6-1.51,2.83-3.37,2.83s-3.37-.22-3.37-2.83,1.51-5.65,3.37-5.65,3.37,3.05,3.37,5.65"/>
    </g>
    <g id="g28">
      <path id="path30" class="cls-2" d="M26.11,13.19a.75.75,0,0,1-.31-.07,14.29,14.29,0,0,1-6.28-5.06,1,1,0,0,1,.23-1.31A.79.79,0,0,1,20.91,7a12.86,12.86,0,0,0,5.51,4.36,1,1,0,0,1,.47,1.22.85.85,0,0,1-.78.59"/>
    </g>
    <g id="g32">
      <path id="path34" class="cls-2" d="M5.9,13.19a.85.85,0,0,1-.78-.59,1,1,0,0,1,.47-1.22A12.86,12.86,0,0,0,11.09,7a.79.79,0,0,1,1.17-.25,1,1,0,0,1,.23,1.3,14.3,14.3,0,0,1-6.28,5.06.76.76,0,0,1-.31.07"/>
    </g>
    <g id="g36">
      <path id="path38" class="cls-3" d="M7.58,32l3.37,0V14.14H7.58Zm13.47-17.9h3.37V32l-3.37,0Z"/>
    </g>
    <g id="g40">
      <path id="path42" class="cls-2" d="M13.47,16a.77.77,0,0,1-.38-.1,6.58,6.58,0,0,0-6,0A.8.8,0,0,1,6,15.5a1,1,0,0,1,.38-1.26,8.1,8.1,0,0,1,7.49,0,1,1,0,0,1,.38,1.26.84.84,0,0,1-.75.52"/>
    </g>
    <g id="g44">
      <path id="path46" class="cls-2" d="M25.26,16a.77.77,0,0,1-.38-.1,6.58,6.58,0,0,0-6,0,.8.8,0,0,1-1.13-.42,1,1,0,0,1,.38-1.26,8.1,8.1,0,0,1,7.49,0A1,1,0,0,1,26,15.5a.84.84,0,0,1-.75.52"/>
    </g>
    <g id="g48">
      <path id="path50" class="cls-3" d="M31.16,31.1c0,1-6.79,1.88-15.16,1.88S.84,32.14.84,31.1,7.63,29.21,16,29.21s15.16.84,15.16,1.88"/>
    </g>
    <g id="g52">
      <path id="path54" class="cls-4" d="M18.53,24.5c0,1.56-1.13,1.88-2.53,1.88s-2.53-.32-2.53-1.88S14.6,22.61,16,22.61s2.53.32,2.53,1.88"/>
    </g>
  </g>
</svg>
