<svg id="1f625" data-name="Layer 2" xmlns="http://www.w3.org/2000/svg" xmlns:xlink="http://www.w3.org/1999/xlink" viewBox="0 0 32 32">
  <style>.cls-1 { fill: none;}.cls-2 {fill: #ffcc4d;}.cls-3 {clip-path: url(#clip-path); }.cls-4 {fill: #66471b;}.cls-5 {fill: #65abde;}</style>
  <circle class="cls-2" cx="16" cy="16" r="16"/>
  <path id="path22" class="cls-2" d="M30.32,16A14.32,14.32,0,1,1,16,1.68,14.32,14.32,0,0,1,30.32,16"/>
  <path id="path26" class="cls-4" d="M12.63,14.74c0,1.63-.94,2.95-2.11,2.95s-2.11-1.32-2.11-2.95.94-2.95,2.11-2.95,2.11,1.32,2.11,2.95"/>
  <path id="path30" class="cls-4" d="M23.58,14.74c0,1.63-.94,2.95-2.11,2.95s-2.11-1.32-2.11-2.95.94-2.95,2.11-2.95,2.11,1.32,2.11,2.95"/>
  <path id="path34" class="cls-4" d="M20.62,24.32s-1-3.69-4.62-3.69-4.61,3.65-4.62,3.69a.42.42,0,0,0,.19.46.43.43,0,0,0,.5-.05S12.93,24,16,24s3.89.7,3.92.73a.42.42,0,0,0,.7-.41"/>
  <path id="path38" class="cls-5" d="M9.26,25.26a4.21,4.21,0,1,1-8.42,0c0-2.33,3.37-8.42,4.21-8.42s4.21,6.1,4.21,8.42"/>
  <path id="path42" class="cls-4" d="M26.11,11.79A7.49,7.49,0,0,1,19.46,8,.84.84,0,0,1,21,7.2a5.81,5.81,0,0,0,5.14,2.91.84.84,0,0,1,0,1.68"/>
  <path id="path46" class="cls-4" d="M5.89,11.79a.84.84,0,1,1,0-1.68c4.28,0,5-2.63,5.08-2.74a.85.85,0,0,1,1-.6.84.84,0,0,1,.6,1c0,.16-1.07,4-6.71,4"/>
</svg>
