<svg id="1f632" data-name="Layer 2" xmlns="http://www.w3.org/2000/svg" xmlns:xlink="http://www.w3.org/1999/xlink" viewBox="0 0 32 32">
    <style>.cls-1 {fill: none;}.cls-2 {fill: #ffcc4d;}.cls-3 {clip-path: url(#clip-path);}.cls-4 {fill: #66471b;}.cls-5 {fill: #f5f8fa;}</style>
    <circle class="cls-2" cx="16" cy="16" r="16"/>
    <path id="path22" class="cls-2" d="M30.32,16A14.32,14.32,0,1,1,16,1.68,14.32,14.32,0,0,1,30.32,16"/>
    <path id="path26" class="cls-4" d="M20.21,23.58c0,2.79-1.88,5.05-4.21,5.05s-4.21-2.26-4.21-5.05,1.88-5.05,4.21-5.05,4.21,2.26,4.21,5.05"/>
    <path id="path30" class="cls-4" d="M5.89,10.11a.84.84,0,0,1-.67-1.35,8.77,8.77,0,0,1,6.57-3.71.84.84,0,0,1,0,1.68,7.1,7.1,0,0,0-5.22,3,.84.84,0,0,1-.67.34"/>
    <path id="path34" class="cls-4" d="M26.11,10.11a.84.84,0,0,1-.67-.34,7.09,7.09,0,0,0-5.23-3,.84.84,0,0,1,0-1.68,8.77,8.77,0,0,1,6.57,3.71.84.84,0,0,1-.67,1.35"/>
    <path id="path38" class="cls-4" d="M12.56,13.89l1.51-1.51a.84.84,0,0,0-1.19-1.19L11.37,12.7,9.86,11.19a.84.84,0,0,0-1.19,1.19l1.51,1.51L8.67,15.4A.84.84,0,1,0,9.86,16.6l1.51-1.51,1.51,1.51a.84.84,0,0,0,1.19-1.19Z"/>
    <path id="path42" class="cls-4" d="M21.82,13.89l1.51-1.51a.84.84,0,0,0-1.19-1.19L20.63,12.7l-1.51-1.51a.84.84,0,1,0-1.19,1.19l1.51,1.51L17.93,15.4a.84.84,0,1,0,1.19,1.19l1.51-1.51,1.51,1.51a.84.84,0,0,0,1.19-1.19Z"/>
    <path id="path46" class="cls-5" d="M16,20.21c-1.4,0-2.53,1.51-2.53,3.37h5.05c0-1.86-1.13-3.37-2.53-3.37"/>
</svg>
