<svg id="1f637" data-name="Layer 2" xmlns="http://www.w3.org/2000/svg" xmlns:xlink="http://www.w3.org/1999/xlink" viewBox="0 0 32 32">
  <style>.cls-1 {fill: none;}.cls-2 {fill: #ffcc4d;}.cls-3 {clip-path: url(#clip-path);}.cls-4 {fill: #66471b;}.cls-5 {fill: #f5f8fa;}</style>
  <circle class="cls-2" cx="16" cy="16" r="16"/>
  <path id="path22" class="cls-2" d="M30.32,16A14.32,14.32,0,1,1,16,1.68,14.32,14.32,0,0,1,30.32,16"/>
  <path id="path26" class="cls-4" d="M6.74,13.47a.84.84,0,0,1-.47-1.54,12.45,12.45,0,0,1,6.36-1.83.84.84,0,1,1,0,1.68A10.8,10.8,0,0,0,7.2,13.33a.84.84,0,0,1-.47.14"/>
  <path id="path30" class="cls-4" d="M25.26,13.47a.84.84,0,0,1-.46-.14,10.92,10.92,0,0,0-5.43-1.54.84.84,0,0,1,0-1.68,12.45,12.45,0,0,1,6.36,1.83.84.84,0,0,1-.47,1.54"/>
  <path id="path34" class="cls-5" d="M1.7,16.39l6.72,3.05v3.83l-5.25-1A14.35,14.35,0,0,0,4.28,24.2L8.42,25v1.15a1.68,1.68,0,0,0,1.68,1.68H21.9a1.68,1.68,0,0,0,1.68-1.68V25l4.14-.75a14.16,14.16,0,0,0,1.11-1.89l-5.25,1V19.45l6.72-3.05c0-.13,0-.26,0-.39,0-.43,0-.85-.06-1.27l-6.67,3v-.92a1.68,1.68,0,0,0-1.68-1.68H10.11a1.68,1.68,0,0,0-1.68,1.68v.92l-6.67-3c0,.42-.06.84-.06,1.27,0,.13,0,.26,0,.39"/>
</svg>
