<svg id="1f633" data-name="Layer 2" xmlns="http://www.w3.org/2000/svg" xmlns:xlink="http://www.w3.org/1999/xlink" viewBox="0 0 32 32">
    <style>.cls-1 {fill: none;}.cls-2 {fill: #ffcc4d;}.cls-3 {clip-path: url(#clip-path);}.cls-4 {fill: #f27792;}.cls-5 {fill: #f5f8fa;}.cls-6 {fill: #66471b;}</style>
    <circle class="cls-2" cx="16" cy="16" r="16"/>
    <path id="path22" class="cls-2" d="M30.32,16A14.32,14.32,0,1,1,16,1.68,14.32,14.32,0,0,1,30.32,16"/>
    <path id="path26" class="cls-4" d="M28.63,19.37a4.21,4.21,0,1,1-4.21-4.21,4.21,4.21,0,0,1,4.21,4.21"/>
    <path id="path30" class="cls-4" d="M11.79,19.37a4.21,4.21,0,1,1-4.21-4.21,4.21,4.21,0,0,1,4.21,4.21"/>
    <path id="path34" class="cls-5" d="M26.11,14.74a4.63,4.63,0,1,1-4.63-4.63,4.63,4.63,0,0,1,4.63,4.63"/>
    <path id="path38" class="cls-5" d="M15.16,14.74a4.63,4.63,0,1,1-4.63-4.63,4.63,4.63,0,0,1,4.63,4.63"/>
    <path id="path42" class="cls-6" d="M12.63,14.74a2.11,2.11,0,1,1-2.11-2.11,2.1,2.1,0,0,1,2.11,2.11"/>
    <path id="path46" class="cls-6" d="M23.58,14.74a2.11,2.11,0,1,1-2.11-2.11,2.1,2.1,0,0,1,2.11,2.11"/>
    <path id="path50" class="cls-6" d="M19.37,26.11H12.63a.84.84,0,1,1,0-1.68h6.74a.84.84,0,1,1,0,1.68"/>
    <path id="path54" class="cls-6" d="M26.11,10.11a.84.84,0,0,1-.67-.34,7.09,7.09,0,0,0-5.23-3,.84.84,0,0,1,0-1.68,8.77,8.77,0,0,1,6.57,3.71.84.84,0,0,1-.67,1.35"/>
    <path id="path58" class="cls-6" d="M5.89,10.11a.84.84,0,0,1-.67-1.35,8.77,8.77,0,0,1,6.57-3.71.84.84,0,0,1,0,1.68,7.1,7.1,0,0,0-5.22,3,.84.84,0,0,1-.67.34"/>
</svg>
