<svg id="1f634" data-name="Layer 2" xmlns="http://www.w3.org/2000/svg" xmlns:xlink="http://www.w3.org/1999/xlink" viewBox="0 0 32 32">
    <style>.cls-1 {fill: none;}.cls-2 {fill: #ffcc4d;}.cls-3 {clip-path: url(#clip-path);}.cls-4 {fill: #66471b;}.cls-5 {fill: #2c6898;} </style>
  <circle class="cls-2" cx="16" cy="16" r="16"/>
  <path id="path22" class="cls-2" d="M30.32,16A14.32,14.32,0,1,1,16,1.68,14.32,14.32,0,0,1,30.32,16"/>
  <path id="path26" class="cls-4" d="M18.53,22.74A2.53,2.53,0,1,1,16,20.21a2.53,2.53,0,0,1,2.53,2.53"/>
  <path id="path30" class="cls-4" d="M15.42,14.83a.42.42,0,0,0-.51,0,5.61,5.61,0,0,1-3.12.76,5.63,5.63,0,0,1-3.12-.76.42.42,0,0,0-.64.51c.05.11,1.26,2.78,3.75,2.78s3.7-2.66,3.75-2.78a.42.42,0,0,0-.12-.5"/>
  <path id="path34" class="cls-4" d="M23.84,14.83a.42.42,0,0,0-.51,0,5.61,5.61,0,0,1-3.12.76,5.63,5.63,0,0,1-3.12-.76.42.42,0,0,0-.64.51c.05.11,1.26,2.78,3.75,2.78s3.7-2.66,3.75-2.78a.42.42,0,0,0-.12-.5"/>
  <path id="path38" class="cls-5" d="M14.31,5.16H12.63A.62.62,0,0,1,12,4.53a.61.61,0,0,1,.66-.64h3.3a.44.44,0,0,1,.47.45.62.62,0,0,1-.15.43L14,8h1.92a.64.64,0,1,1,0,1.27H12.5c-.32,0-.6-.16-.6-.5A.79.79,0,0,1,12,8.37Z"/>
  <path id="path42" class="cls-5" d="M20.63,2.79h-2A.72.72,0,0,1,17.9,2a.72.72,0,0,1,.77-.74h3.86a.52.52,0,0,1,.56.53.72.72,0,0,1-.18.51L20.22,6.09h2.24a.74.74,0,1,1,0,1.49h-4c-.38,0-.7-.19-.7-.58A.91.91,0,0,1,18,6.54Z"/>
  <path id="path46" class="cls-5" d="M27.37,5.63H24.84a.92.92,0,0,1-1-1,.92.92,0,0,1,1-1h5a.67.67,0,0,1,.71.68.93.93,0,0,1-.23.65L26.84,9.88h2.88a1,1,0,1,1,0,1.91H24.64c-.49,0-.89-.24-.89-.74a1.18,1.18,0,0,1,.2-.59Z"/>
</svg>
