<svg id="1f635" data-name="Layer 2" xmlns="http://www.w3.org/2000/svg" viewBox="0 0 32 32">
  <style>.cls-1 {fill: #ffcc4d;}.cls-2 { fill: #66471b;}</style>
  <circle class="cls-1" cx="16" cy="16" r="16"/>
  <path id="path26" class="cls-2" d="M20.21,23.76c0,2.81-1.88,5.09-4.21,5.09s-4.21-2.28-4.21-5.09,1.88-5.09,4.21-5.09,4.21,2.28,4.21,5.09"/>
  <path id="path30" class="cls-2" d="M5.89,10.18a.83.83,0,0,1-.5-.17.85.85,0,0,1-.17-1.19,8.75,8.75,0,0,1,6.57-3.73.85.85,0,0,1,0,1.7A7.08,7.08,0,0,0,6.57,9.84a.84.84,0,0,1-.67.34"/>
  <path id="path34" class="cls-2" d="M26.11,10.18a.84.84,0,0,1-.67-.34,7.08,7.08,0,0,0-5.23-3.05.85.85,0,0,1,0-1.7,8.75,8.75,0,0,1,6.57,3.73A.85.85,0,0,1,26.61,10a.83.83,0,0,1-.5.17"/>
  <path id="path38" class="cls-2" d="M12.56,14l1.51-1.52a.85.85,0,0,0,0-1.2.84.84,0,0,0-1.19,0L11.37,12.8,9.86,11.28a.84.84,0,0,0-1.19,0,.85.85,0,0,0,0,1.2L10.18,14,8.67,15.52a.85.85,0,0,0,0,1.2.84.84,0,0,0,1.19,0l1.51-1.52,1.51,1.52a.84.84,0,0,0,1.19,0,.85.85,0,0,0,0-1.2Z"/>
  <path id="path42" class="cls-2" d="M21.82,14l1.51-1.52a.85.85,0,0,0,0-1.2.84.84,0,0,0-1.19,0L20.63,12.8l-1.51-1.52a.84.84,0,0,0-1.19,0,.85.85,0,0,0,0,1.2L19.44,14l-1.51,1.52a.85.85,0,0,0,0,1.2.84.84,0,0,0,1.19,0l1.51-1.52,1.51,1.52a.84.84,0,0,0,1.19,0,.85.85,0,0,0,0-1.2Z"/>
</svg>
