<svg id="Layer_2" data-name="Layer 2" xmlns="http://www.w3.org/2000/svg" viewBox="0 0 32 32">
    <style>
      .money-1{fill: #fecb4c;}.money-2{fill: #5e9040;}.money-3{fill: #66481c;}.money-4{fill: #67491c;}.money-5{fill: #fdfefd;}
    </style>
  <path class="money-1" d="M14.75,0h2.5l.16.06A15.38,15.38,0,0,1,24.1,2.21a15.82,15.82,0,0,1,7.66,11.05c.09.49.16,1,.24,1.49v2.5c0,.3-.1.61-.14.91a15.77,15.77,0,0,1-4.41,9,15.69,15.69,0,0,1-9.1,4.66L17.19,32h-.25a1.2,1.2,0,0,1,.27-.14,4.84,4.84,0,0,0,4-4,16,16,0,0,0,.16-2.45c.43-.29.88-.56,1.28-.88a8.26,8.26,0,0,0,3-4.6,10.53,10.53,0,0,0,.13-1.05,45.15,45.15,0,0,1-19.6,0,12.51,12.51,0,0,0,.24,1.37,9,9,0,0,0,4.25,5.18c0,.45,0,.9,0,1.34a5.08,5.08,0,0,0,4.17,5.08.78.78,0,0,1,.21.13h-.31l-.91-.14A16,16,0,0,1,.24,18.77c-.09-.5-.16-1-.24-1.52V14.69c0-.28.1-.56.14-.84A15.75,15.75,0,0,1,4,5.43,15.71,15.71,0,0,1,13.26.25ZM10.52,7a.82.82,0,0,0-.82.9.36.36,0,0,1-.27.41,2.57,2.57,0,0,0-.67.39,1.74,1.74,0,0,0,.13,2.89,10.12,10.12,0,0,0,1.05.55c.42.2.85.38,1.27.6.23.12.46.3.42.6a.69.69,0,0,1-.57.55,1.91,1.91,0,0,1-1.59-.24c-.21-.13-.42-.28-.63-.4a.64.64,0,0,0-.81.08.66.66,0,0,0-.18.8,1.13,1.13,0,0,0,.37.49,5.34,5.34,0,0,0,1.1.57c.28.1.42.18.41.52a.82.82,0,0,0,.78.85h0a.81.81,0,0,0,.83-.8c0-.38.11-.58.48-.64a.83.83,0,0,0,.25-.12,2.07,2.07,0,0,0,1.11-1.86,1.75,1.75,0,0,0-1.07-1.62c-.35-.19-.74-.34-1.1-.51a11.16,11.16,0,0,1-1.15-.55.44.44,0,0,1,.06-.81,1.55,1.55,0,0,1,.48-.13,1.81,1.81,0,0,1,1.38.47.78.78,0,0,0,1.1-.06.75.75,0,0,0-.16-1.06,4.15,4.15,0,0,0-1-.57c-.22-.09-.33-.15-.33-.42A.8.8,0,0,0,10.52,7Zm10.55,9.56a.8.8,0,0,0,.81-.88.46.46,0,0,1,.38-.52,2.06,2.06,0,0,0,1.47-1.94,1.81,1.81,0,0,0-1.22-1.79c-.47-.23-1-.41-1.43-.62a4.13,4.13,0,0,1-.71-.37.43.43,0,0,1,.06-.77A1.73,1.73,0,0,1,21,9.51a1.91,1.91,0,0,1,1.34.5.76.76,0,0,0,1-.08.72.72,0,0,0-.1-1l0,0a3.93,3.93,0,0,0-1-.6c-.25-.1-.36-.19-.36-.47a.82.82,0,0,0-1.64,0s0,0,0,0c0,.31-.12.42-.38.53a1.92,1.92,0,0,0-1.28,1.76,1.74,1.74,0,0,0,1.13,1.65c.42.22.88.39,1.3.6a5.83,5.83,0,0,1,.92.52.48.48,0,0,1,0,.83,1.34,1.34,0,0,1-.48.2,2,2,0,0,1-1.49-.31,5.66,5.66,0,0,0-.61-.38.66.66,0,0,0-1,.58,1.2,1.2,0,0,0,.28.69,2.2,2.2,0,0,0,1.26.7c.29.07.38.19.37.48a.8.8,0,0,0,.82.87Z" transform="translate(0)"/>
  <path class="money-2" d="M15.06,32c-.07,0-.14-.11-.21-.12a5.08,5.08,0,0,1-4.17-5.08c0-.45,0-.9,0-1.34,0-.13,0-.27,0-.41,0-1.42,0-2.83,0-4.25,0-.26.1-.33.33-.29a6.08,6.08,0,0,0,.61.11l3.54.32a21.22,21.22,0,0,0,4.39-.18c.58-.07,1.15-.17,1.76-.25,0,.15,0,.28,0,.41q0,2.26,0,4.53a16,16,0,0,1-.16,2.45,4.84,4.84,0,0,1-4,4,1.19,1.19,0,0,0-.27.14H15.06Zm.17-2.14v.23a.83.83,0,0,0,.82.9.81.81,0,0,0,.8-.89c0-.29.11-.38.35-.47a2,2,0,0,0,1.42-1.8A1.76,1.76,0,0,0,17.45,26c-.47-.23-1-.41-1.43-.62a3.69,3.69,0,0,1-.68-.37.41.41,0,0,1,0-.7,1.44,1.44,0,0,1,.52-.17,1.75,1.75,0,0,1,1.35.45.76.76,0,0,0,1.07-.05.75.75,0,0,0-.16-1.06,3.63,3.63,0,0,0-.94-.52c-.24-.09-.36-.18-.36-.46a.8.8,0,1,0-1.61,0,.42.42,0,0,1-.33.47,1.9,1.9,0,0,0-1.28,1.72,1.68,1.68,0,0,0,1.1,1.63c.43.22.89.4,1.33.61a4.85,4.85,0,0,1,.79.44c.38.28.35.66-.06.9a1.3,1.3,0,0,1-.44.16,1.92,1.92,0,0,1-1.43-.32,4.82,4.82,0,0,0-.61-.37.66.66,0,0,0-.95.6,1,1,0,0,0,.53.86C14.3,29.45,14.75,29.63,15.23,29.86Z" transform="translate(0)"/>
  <path class="money-3" d="M21.33,25.46q0-2.26,0-4.53c0-.13,0-.26,0-.41-.61.09-1.18.18-1.76.25a21.44,21.44,0,0,1-4.39.18l-3.54-.32c-.21,0-.41-.07-.61-.11s-.34,0-.33.29c0,1.42,0,2.83,0,4.25,0,.13,0,.27,0,.41a9,9,0,0,1-4.25-5.18,12,12,0,0,1-.24-1.37,45.19,45.19,0,0,0,19.61,0A10.53,10.53,0,0,1,25.65,20a8.25,8.25,0,0,1-3,4.6C22.21,24.9,21.76,25.16,21.33,25.46Z" transform="translate(0)"/>
  <path class="money-4" d="M10.52,7a.81.81,0,0,1,.84.86c0,.27.11.33.33.42a4.15,4.15,0,0,1,1,.57.75.75,0,0,1,.16,1.06.78.78,0,0,1-1.1.06,1.81,1.81,0,0,0-1.37-.47,1.55,1.55,0,0,0-.48.13.44.44,0,0,0-.06.81A11.67,11.67,0,0,0,11,11c.37.17.75.31,1.1.51a1.75,1.75,0,0,1,1.07,1.63A2.07,2.07,0,0,1,12.08,15a.83.83,0,0,1-.25.12c-.37.06-.48.26-.48.64a.81.81,0,0,1-.83.8.82.82,0,0,1-.81-.82v0c0-.34-.12-.42-.41-.52a5.34,5.34,0,0,1-1.1-.57,1.13,1.13,0,0,1-.37-.49.68.68,0,0,1,.18-.8.65.65,0,0,1,.81-.08c.22.12.42.27.63.4a1.91,1.91,0,0,0,1.59.24.69.69,0,0,0,.57-.55c0-.31-.19-.48-.42-.6-.41-.22-.85-.39-1.27-.6a10.57,10.57,0,0,1-1.05-.55,1.75,1.75,0,0,1-.12-2.89,2.57,2.57,0,0,1,.67-.39.36.36,0,0,0,.27-.41A.81.81,0,0,1,10.52,7Z" transform="translate(0)"/>
  <path class="money-4" d="M21.07,16.56a.81.81,0,0,1-.83-.86c0-.29-.08-.41-.37-.48a2.2,2.2,0,0,1-1.26-.7,1.21,1.21,0,0,1-.28-.69.66.66,0,0,1,1-.58,5.8,5.8,0,0,1,.61.38,1.94,1.94,0,0,0,1.49.31,1.34,1.34,0,0,0,.48-.2.48.48,0,0,0,0-.83,5.78,5.78,0,0,0-.92-.52c-.43-.21-.88-.38-1.3-.6a1.74,1.74,0,0,1-1.12-1.65,1.93,1.93,0,0,1,1.27-1.77c.26-.11.39-.22.38-.53a.82.82,0,0,1,1.64,0s0,0,0,0c0,.28.11.37.36.47a3.93,3.93,0,0,1,1,.6.73.73,0,0,1,.13,1l0,0a.76.76,0,0,1-1,.08A1.91,1.91,0,0,0,21,9.51a1.73,1.73,0,0,0-.59.17.43.43,0,0,0-.06.77,4.13,4.13,0,0,0,.71.38c.47.21,1,.39,1.43.62a1.81,1.81,0,0,1,1.22,1.79,2.06,2.06,0,0,1-1.47,1.94.46.46,0,0,0-.37.52A.8.8,0,0,1,21.07,16.56Z" transform="translate(0)"/>
  <path class="money-5" d="M15.23,29.86c-.49-.23-.93-.41-1.34-.65a1,1,0,0,1-.53-.86.66.66,0,0,1,.95-.6,4.73,4.73,0,0,1,.61.38,1.92,1.92,0,0,0,1.43.32,1.3,1.3,0,0,0,.44-.16c.41-.25.44-.62.06-.9a5.15,5.15,0,0,0-.79-.44c-.44-.21-.9-.39-1.33-.61a1.68,1.68,0,0,1-1.1-1.63A1.9,1.9,0,0,1,14.92,23a.42.42,0,0,0,.33-.47.8.8,0,1,1,1.61,0c0,.29.12.37.36.46a3.63,3.63,0,0,1,.94.52.75.75,0,0,1,.16,1.06.76.76,0,0,1-1.07.05,1.74,1.74,0,0,0-1.35-.45,1.44,1.44,0,0,0-.52.17.41.41,0,0,0,0,.7,3.69,3.69,0,0,0,.68.37c.47.21,1,.39,1.43.62a1.76,1.76,0,0,1,1.18,1.83,2,2,0,0,1-1.42,1.8c-.24.09-.36.18-.35.47a.81.81,0,0,1-.8.89.83.83,0,0,1-.82-.9C15.23,30,15.23,29.9,15.23,29.86Z" transform="translate(0)"/>
</svg>
